<svg viewBox="0 0 200 200" xmlns="http://www.w3.org/2000/svg">
  <!-- Background Circle Canvas -->
  <path d="M 100 10 A 90 90 0 1 1 99.9 10 Z" fill="#FFFFFF" stroke="#000000" stroke-width="2" />
  
  <!-- Center Crystal -->
  <path d="M 100 150 C 70 120, 70 80, 100 50 C 130 80, 130 120, 100 150 Z" fill="#FFFFFF" stroke="#000000" stroke-width="2"/>
  
  <!-- Inner Left Petal -->
  <path d="M 100 140 C 60 100, 30 70, 60 30 C 80 50, 95 90, 100 140 Z" fill="#FFFFFF" stroke="#000000" stroke-width="2"/>
  
  <!-- Inner Right Petal -->
  <path d="M 100 140 C 140 100, 170 70, 140 30 C 120 50, 105 90, 100 140 Z" fill="#FFFFFF" stroke="#000000" stroke-width="2"/>
  
  <!-- Far Left Wing -->
  <path d="M 90 150 C 40 160, 10 130, 10 100 C 40 110, 70 130, 90 150 Z" fill="#FFFFFF" stroke="#000000" stroke-width="2"/>
  
  <!-- Far Right Wing -->
  <path d="M 110 150 C 160 160, 190 130, 190 100 C 160 110, 130 130, 110 150 Z" fill="#FFFFFF" stroke="#000000" stroke-width="2"/>

  <!-- Bottom Left Leaf -->
  <path d="M 90 160 C 60 180, 40 190, 30 170 C 50 160, 70 155, 90 160 Z" fill="#FFFFFF" stroke="#000000" stroke-width="2"/>

  <!-- Bottom Right Leaf -->
  <path d="M 110 160 C 140 180, 160 190, 170 170 C 150 160, 130 155, 110 160 Z" fill="#FFFFFF" stroke="#000000" stroke-width="2"/>

  <!-- Bottom Root Foundation -->
  <path d="M 85 165 C 80 185, 90 195, 100 195 C 110 195, 120 185, 115 165 C 105 170, 95 170, 85 165 Z" fill="#FFFFFF" stroke="#000000" stroke-width="2"/>
</svg>
