<svg viewBox="0 0 1000 1000" xmlns="http://www.w3.org/2000/svg">
<path d="M 980.0,500.0 A 480,480 0 1,1 20.0,500.00000000000006 A 480,480 0 1,1 980.0,500.0 Z" fill="#FFFFFF" stroke="#222222" stroke-width="8" stroke-linejoin="round" />
<path d="M 500,500 L 880.0,500.0 L 977.6886688026545,547.0482273581891 L 872.6984065532276,574.1343223661287 Z" fill="#FFFFFF" stroke="#222222" stroke-width="4" stroke-linejoin="round"/>
<path d="M 500,500 L 872.6984065532276,574.1343223661287 L 959.3313611514602,639.3366450821419 L 851.074222354289,645.4197042987341 Z" fill="#FFFFFF" stroke="#222222" stroke-width="4" stroke-linejoin="round"/>
<path d="M 500,500 L 851.074222354289,645.4197042987341 L 923.3222068872104,726.2704336764789 L 815.9584526749672,711.1166885474488 Z" fill="#FFFFFF" stroke="#222222" stroke-width="4" stroke-linejoin="round"/>
<path d="M 500,500 L 815.9584526749672,711.1166885474488 L 871.0450176141137,804.5087763985498 L 768.7005768508881,768.7005768508881 Z" fill="#FFFFFF" stroke="#222222" stroke-width="4" stroke-linejoin="round"/>
<path d="M 500,500 L 768.7005768508881,768.7005768508881 L 804.5087763985498,871.0450176141137 L 711.1166885474488,815.9584526749672 Z" fill="#FFFFFF" stroke="#222222" stroke-width="4" stroke-linejoin="round"/>
<path d="M 500,500 L 711.1166885474489,815.9584526749671 L 726.2704336764789,923.3222068872103 L 645.4197042987341,851.074222354289 Z" fill="#FFFFFF" stroke="#222222" stroke-width="4" stroke-linejoin="round"/>
<path d="M 500,500 L 645.4197042987341,851.074222354289 L 639.3366450821419,959.3313611514602 L 574.1343223661287,872.6984065532276 Z" fill="#FFFFFF" stroke="#222222" stroke-width="4" stroke-linejoin="round"/>
<path d="M 500,500 L 574.1343223661288,872.6984065532276 L 547.0482273581891,977.6886688026545 L 500.0,880.0 Z" fill="#FFFFFF" stroke="#222222" stroke-width="4" stroke-linejoin="round"/>
<path d="M 500,500 L 500.0,880.0 L 452.95177264181086,977.6886688026545 L 425.8656776338712,872.6984065532276 Z" fill="#FFFFFF" stroke="#222222" stroke-width="4" stroke-linejoin="round"/>
<path d="M 500,500 L 425.86567763387137,872.6984065532276 L 360.66335491785816,959.3313611514602 L 354.58029570126587,851.074222354289 Z" fill="#FFFFFF" stroke="#222222" stroke-width="4" stroke-linejoin="round"/>
<path d="M 500,500 L 354.58029570126587,851.074222354289 L 273.7295663235211,923.3222068872104 L 288.88331145255114,815.9584526749671 Z" fill="#FFFFFF" stroke="#222222" stroke-width="4" stroke-linejoin="round"/>
<path d="M 500,500 L 288.88331145255125,815.9584526749672 L 195.4912236014502,871.0450176141138 L 231.299423149112,768.7005768508881 Z" fill="#FFFFFF" stroke="#222222" stroke-width="4" stroke-linejoin="round"/>
<path d="M 500,500 L 231.299423149112,768.7005768508881 L 128.95498238588624,804.5087763985498 L 184.04154732503275,711.1166885474488 Z" fill="#FFFFFF" stroke="#222222" stroke-width="4" stroke-linejoin="round"/>
<path d="M 500,500 L 184.04154732503275,711.1166885474488 L 76.67779311278952,726.2704336764788 L 148.92577764571098,645.419704298734 Z" fill="#FFFFFF" stroke="#222222" stroke-width="4" stroke-linejoin="round"/>
<path d="M 500,500 L 148.92577764571104,645.4197042987341 L 40.668638848539786,639.336645082142 L 127.30159344677242,574.1343223661287 Z" fill="#FFFFFF" stroke="#222222" stroke-width="4" stroke-linejoin="round"/>
<path d="M 500,500 L 127.30159344677242,574.1343223661289 L 22.31133119734551,547.0482273581893 L 120.0,500.00000000000006 Z" fill="#FFFFFF" stroke="#222222" stroke-width="4" stroke-linejoin="round"/>
<path d="M 500,500 L 120.0,500.00000000000006 L 22.311331197345453,452.9517726418109 L 127.30159344677242,425.8656776338712 Z" fill="#FFFFFF" stroke="#222222" stroke-width="4" stroke-linejoin="round"/>
<path d="M 500,500 L 127.30159344677242,425.8656776338712 L 40.668638848539786,360.663354917858 L 148.9257776457111,354.58029570126575 Z" fill="#FFFFFF" stroke="#222222" stroke-width="4" stroke-linejoin="round"/>
<path d="M 500,500 L 148.92577764571098,354.5802957012659 L 76.67779311278957,273.7295663235211 L 184.0415473250328,288.88331145255114 Z" fill="#FFFFFF" stroke="#222222" stroke-width="4" stroke-linejoin="round"/>
<path d="M 500,500 L 184.04154732503275,288.88331145255125 L 128.95498238588618,195.49122360145026 L 231.29942314911187,231.299423149112 Z" fill="#FFFFFF" stroke="#222222" stroke-width="4" stroke-linejoin="round"/>
<path d="M 500,500 L 231.29942314911182,231.2994231491121 L 195.49122360144997,128.9549823858864 L 288.88331145255086,184.04154732503298 Z" fill="#FFFFFF" stroke="#222222" stroke-width="4" stroke-linejoin="round"/>
<path d="M 500,500 L 288.8833114525512,184.0415473250328 L 273.729566323521,76.67779311278963 L 354.58029570126564,148.92577764571115 Z" fill="#FFFFFF" stroke="#222222" stroke-width="4" stroke-linejoin="round"/>
<path d="M 500,500 L 354.58029570126564,148.92577764571115 L 360.66335491785765,40.6686388485399 L 425.86567763387075,127.30159344677253 Z" fill="#FFFFFF" stroke="#222222" stroke-width="4" stroke-linejoin="round"/>
<path d="M 500,500 L 425.8656776338711,127.30159344677247 L 452.9517726418106,22.31133119734551 L 499.9999999999996,120.0 Z" fill="#FFFFFF" stroke="#222222" stroke-width="4" stroke-linejoin="round"/>
<path d="M 500,500 L 499.99999999999994,120.0 L 547.0482273581888,22.311331197345453 L 574.1343223661285,127.30159344677236 Z" fill="#FFFFFF" stroke="#222222" stroke-width="4" stroke-linejoin="round"/>
<path d="M 500,500 L 574.1343223661288,127.30159344677242 L 639.3366450821418,40.66863884853973 L 645.4197042987339,148.92577764571098 Z" fill="#FFFFFF" stroke="#222222" stroke-width="4" stroke-linejoin="round"/>
<path d="M 500,500 L 645.4197042987341,148.9257776457111 L 726.2704336764789,76.67779311278957 L 711.1166885474487,184.04154732503275 Z" fill="#FFFFFF" stroke="#222222" stroke-width="4" stroke-linejoin="round"/>
<path d="M 500,500 L 711.1166885474487,184.04154732503275 L 804.5087763985496,128.954982385886 L 768.7005768508877,231.29942314911165 Z" fill="#FFFFFF" stroke="#222222" stroke-width="4" stroke-linejoin="round"/>
<path d="M 500,500 L 768.700576850888,231.29942314911187 L 871.0450176141135,195.49122360144997 L 815.958452674967,288.88331145255086 Z" fill="#FFFFFF" stroke="#222222" stroke-width="4" stroke-linejoin="round"/>
<path d="M 500,500 L 815.9584526749672,288.8833114525512 L 923.3222068872103,273.729566323521 L 851.0742223542888,354.58029570126564 Z" fill="#FFFFFF" stroke="#222222" stroke-width="4" stroke-linejoin="round"/>
<path d="M 500,500 L 851.0742223542888,354.58029570126564 L 959.3313611514601,360.6633549178576 L 872.6984065532274,425.86567763387075 Z" fill="#FFFFFF" stroke="#222222" stroke-width="4" stroke-linejoin="round"/>
<path d="M 500,500 L 872.6984065532275,425.8656776338711 L 977.6886688026545,452.9517726418105 L 880.0,499.99999999999955 Z" fill="#FFFFFF" stroke="#222222" stroke-width="4" stroke-linejoin="round"/>
<path d="M 500,500 L 757.7756639571908,466.0631900227866 C 825.6207130938725,435.23001309064546 852.0,500.0 940.0,500.0 C 852.0,500.0 825.6207130938725,564.7699869093545 757.7756639571908,533.9368099772134 Z" fill="#FFFFFF" stroke="#222222" stroke-width="4" stroke-linejoin="round" />
<path d="M 500,500 L 751.1407148351577,567.2929517266554 C 825.6207130938725,564.7699869093545 825.2055954439729,634.7045681925116 906.5069943049662,668.3807102406395 C 825.2055954439729,634.7045681925116 776.047911284445,684.4493173625079 725.1666049839541,630.0 Z" fill="#FFFFFF" stroke="#222222" stroke-width="4" stroke-linejoin="round" />
<path d="M 500,500 L 706.2718684757211,658.2779715422673 C 776.047911284445,684.4493173625079 748.9015869776647,748.9015869776647 811.1269837220809,811.1269837220809 C 748.9015869776647,748.9015869776647 684.4493173625079,776.047911284445 658.2779715422673,706.2718684757211 Z" fill="#FFFFFF" stroke="#222222" stroke-width="4" stroke-linejoin="round" />
<path d="M 500,500 L 630.0,725.166604983954 C 684.4493173625079,776.047911284445 634.7045681925116,825.2055954439729 668.3807102406395,906.5069943049662 C 634.7045681925116,825.2055954439729 564.7699869093547,825.6207130938725 567.2929517266554,751.1407148351577 Z" fill="#FFFFFF" stroke="#222222" stroke-width="4" stroke-linejoin="round" />
<path d="M 500,500 L 533.9368099772134,757.7756639571908 C 564.7699869093547,825.6207130938725 500.0,852.0 500.0,940.0 C 500.0,852.0 435.23001309064546,825.6207130938725 466.06319002278656,757.7756639571908 Z" fill="#FFFFFF" stroke="#222222" stroke-width="4" stroke-linejoin="round" />
<path d="M 500,500 L 432.70704827334464,751.1407148351577 C 435.23001309064546,825.6207130938725 365.2954318074884,825.2055954439729 331.6192897593605,906.5069943049662 C 365.2954318074884,825.2055954439729 315.5506826374922,776.047911284445 370.00000000000006,725.1666049839541 Z" fill="#FFFFFF" stroke="#222222" stroke-width="4" stroke-linejoin="round" />
<path d="M 500,500 L 341.7220284577326,706.2718684757211 C 315.5506826374922,776.047911284445 251.0984130223353,748.9015869776647 188.87301627791913,811.1269837220809 C 251.0984130223353,748.9015869776647 223.95208871555496,684.4493173625079 293.72813152427887,658.2779715422674 Z" fill="#FFFFFF" stroke="#222222" stroke-width="4" stroke-linejoin="round" />
<path d="M 500,500 L 274.8333950160459,630.0 C 223.95208871555496,684.4493173625079 174.79440455602708,634.7045681925116 93.49300569503384,668.3807102406396 C 174.79440455602708,634.7045681925116 174.3792869061275,564.7699869093547 248.85928516484228,567.2929517266555 Z" fill="#FFFFFF" stroke="#222222" stroke-width="4" stroke-linejoin="round" />
<path d="M 500,500 L 242.22433604280928,533.9368099772134 C 174.3792869061275,564.7699869093547 148.0,500.00000000000006 60.0,500.00000000000006 C 148.0,500.00000000000006 174.3792869061275,435.2300130906454 242.22433604280928,466.06319002278667 Z" fill="#FFFFFF" stroke="#222222" stroke-width="4" stroke-linejoin="round" />
<path d="M 500,500 L 248.85928516484225,432.7070482733446 C 174.3792869061275,435.2300130906454 174.79440455602702,365.2954318074884 93.49300569503379,331.6192897593605 C 174.79440455602702,365.2954318074884 223.9520887155549,315.5506826374922 274.83339501604587,370.0000000000001 Z" fill="#FFFFFF" stroke="#222222" stroke-width="4" stroke-linejoin="round" />
<path d="M 500,500 L 293.72813152427887,341.7220284577326 C 223.9520887155549,315.5506826374922 251.09841302233522,251.0984130223353 188.87301627791902,188.87301627791913 C 251.09841302233522,251.0984130223353 315.55068263749206,223.95208871555496 341.72202845773256,293.7281315242789 Z" fill="#FFFFFF" stroke="#222222" stroke-width="4" stroke-linejoin="round" />
<path d="M 500,500 L 369.9999999999999,274.833395016046 C 315.55068263749183,223.95208871555513 365.29543180748817,174.79440455602713 331.61928975936024,93.49300569503396 C 365.29543180748817,174.79440455602713 435.2300130906453,174.37928690612756 432.7070482733444,248.8592851648423 Z" fill="#FFFFFF" stroke="#222222" stroke-width="4" stroke-linejoin="round" />
<path d="M 500,500 L 466.06319002278656,242.22433604280928 C 435.2300130906453,174.37928690612756 499.99999999999994,148.0 499.99999999999994,60.0 C 499.99999999999994,148.0 564.7699869093547,174.3792869061275 533.9368099772133,242.22433604280928 Z" fill="#FFFFFF" stroke="#222222" stroke-width="4" stroke-linejoin="round" />
<path d="M 500,500 L 567.2929517266555,248.85928516484228 C 564.7699869093547,174.3792869061275 634.7045681925117,174.79440455602713 668.3807102406396,93.4930056950339 C 634.7045681925117,174.79440455602713 684.449317362508,223.95208871555508 630.0,274.833395016046 Z" fill="#FFFFFF" stroke="#222222" stroke-width="4" stroke-linejoin="round" />
<path d="M 500,500 L 658.2779715422673,293.72813152427887 C 684.4493173625078,223.9520887155549 748.9015869776647,251.09841302233522 811.1269837220808,188.87301627791902 C 748.9015869776647,251.09841302233522 776.047911284445,315.55068263749206 706.271868475721,341.72202845773256 Z" fill="#FFFFFF" stroke="#222222" stroke-width="4" stroke-linejoin="round" />
<path d="M 500,500 L 725.166604983954,369.9999999999999 C 776.0479112844448,315.55068263749183 825.2055954439729,365.29543180748817 906.506994304966,331.6192897593602 C 825.2055954439729,365.29543180748817 825.6207130938724,435.23001309064523 751.1407148351577,432.7070482733444 Z" fill="#FFFFFF" stroke="#222222" stroke-width="4" stroke-linejoin="round" />
<path d="M 780.0,500.0 A 280,280 0 1,1 220.0,500.00000000000006 A 280,280 0 1,1 780.0,500.0 Z" fill="#FFFFFF" stroke="#222222" stroke-width="4" stroke-linejoin="round" />
<path d="M 500,500 L 660.0,500.0 L 767.6901125709288,535.2420718994139 L 654.5481322062509,541.4110472164033 Z" fill="#FFFFFF" stroke="#222222" stroke-width="4" stroke-linejoin="round"/>
<path d="M 500,500 L 654.5481322062509,541.4110472164033 L 749.4474737780474,603.3245267385743 L 638.5640646055102,580.0 Z" fill="#FFFFFF" stroke="#222222" stroke-width="4" stroke-linejoin="round"/>
<path d="M 500,500 L 638.5640646055102,580.0 L 714.2054018786336,664.3655858323546 L 613.1370849898476,613.1370849898476 Z" fill="#FFFFFF" stroke="#222222" stroke-width="4" stroke-linejoin="round"/>
<path d="M 500,500 L 613.1370849898476,613.1370849898476 L 664.3655858323546,714.2054018786334 L 580.0,638.5640646055101 Z" fill="#FFFFFF" stroke="#222222" stroke-width="4" stroke-linejoin="round"/>
<path d="M 500,500 L 580.0,638.5640646055101 L 603.3245267385743,749.4474737780474 L 541.4110472164033,654.5481322062509 Z" fill="#FFFFFF" stroke="#222222" stroke-width="4" stroke-linejoin="round"/>
<path d="M 500,500 L 541.4110472164033,654.5481322062509 L 535.2420718994139,767.6901125709288 L 500.0,660.0 Z" fill="#FFFFFF" stroke="#222222" stroke-width="4" stroke-linejoin="round"/>
<path d="M 500,500 L 500.0,660.0 L 464.75792810058607,767.6901125709288 L 458.58895278359665,654.5481322062509 Z" fill="#FFFFFF" stroke="#222222" stroke-width="4" stroke-linejoin="round"/>
<path d="M 500,500 L 458.5889527835967,654.5481322062509 L 396.6754732614258,749.4474737780474 L 420.0,638.5640646055102 Z" fill="#FFFFFF" stroke="#222222" stroke-width="4" stroke-linejoin="round"/>
<path d="M 500,500 L 420.0,638.5640646055102 L 335.6344141676455,714.2054018786336 L 386.86291501015245,613.1370849898476 Z" fill="#FFFFFF" stroke="#222222" stroke-width="4" stroke-linejoin="round"/>
<path d="M 500,500 L 386.8629150101524,613.1370849898476 L 285.79459812136656,664.3655858323547 L 361.43593539448983,580.0 Z" fill="#FFFFFF" stroke="#222222" stroke-width="4" stroke-linejoin="round"/>
<path d="M 500,500 L 361.4359353944898,580.0 L 250.55252622195258,603.3245267385743 L 345.4518677937491,541.4110472164034 Z" fill="#FFFFFF" stroke="#222222" stroke-width="4" stroke-linejoin="round"/>
<path d="M 500,500 L 345.4518677937491,541.4110472164034 L 232.30988742907118,535.242071899414 L 340.0,500.0000000000001 Z" fill="#FFFFFF" stroke="#222222" stroke-width="4" stroke-linejoin="round"/>
<path d="M 500,500 L 340.0,500.0 L 232.30988742907118,464.7579281005861 L 345.45186779374905,458.58895278359677 Z" fill="#FFFFFF" stroke="#222222" stroke-width="4" stroke-linejoin="round"/>
<path d="M 500,500 L 345.4518677937491,458.58895278359665 L 250.55252622195255,396.6754732614258 L 361.4359353944898,420.00000000000006 Z" fill="#FFFFFF" stroke="#222222" stroke-width="4" stroke-linejoin="round"/>
<path d="M 500,500 L 361.4359353944898,420.00000000000006 L 285.79459812136645,335.6344141676455 L 386.86291501015234,386.86291501015245 Z" fill="#FFFFFF" stroke="#222222" stroke-width="4" stroke-linejoin="round"/>
<path d="M 500,500 L 386.8629150101524,386.8629150101524 L 335.63441416764533,285.79459812136656 L 419.99999999999994,361.43593539448983 Z" fill="#FFFFFF" stroke="#222222" stroke-width="4" stroke-linejoin="round"/>
<path d="M 500,500 L 419.99999999999994,361.43593539448983 L 396.6754732614256,250.55252622195263 L 458.58895278359654,345.4518677937491 Z" fill="#FFFFFF" stroke="#222222" stroke-width="4" stroke-linejoin="round"/>
<path d="M 500,500 L 458.5889527835967,345.4518677937491 L 464.75792810058607,232.30988742907118 L 499.99999999999994,340.0 Z" fill="#FFFFFF" stroke="#222222" stroke-width="4" stroke-linejoin="round"/>
<path d="M 500,500 L 499.99999999999994,340.0 L 535.2420718994139,232.30988742907118 L 541.4110472164033,345.45186779374905 Z" fill="#FFFFFF" stroke="#222222" stroke-width="4" stroke-linejoin="round"/>
<path d="M 500,500 L 541.4110472164033,345.45186779374905 L 603.324526738574,250.55252622195252 L 579.9999999999999,361.4359353944898 Z" fill="#FFFFFF" stroke="#222222" stroke-width="4" stroke-linejoin="round"/>
<path d="M 500,500 L 580.0,361.43593539448983 L 664.3655858323546,285.7945981213665 L 613.1370849898476,386.8629150101524 Z" fill="#FFFFFF" stroke="#222222" stroke-width="4" stroke-linejoin="round"/>
<path d="M 500,500 L 613.1370849898476,386.8629150101524 L 714.2054018786334,335.63441416764533 L 638.5640646055101,419.99999999999994 Z" fill="#FFFFFF" stroke="#222222" stroke-width="4" stroke-linejoin="round"/>
<path d="M 500,500 L 638.5640646055101,419.99999999999994 L 749.4474737780474,396.6754732614256 L 654.5481322062509,458.58895278359654 Z" fill="#FFFFFF" stroke="#222222" stroke-width="4" stroke-linejoin="round"/>
<path d="M 500,500 L 654.5481322062509,458.58895278359654 L 767.6901125709287,464.7579281005858 L 660.0,499.99999999999983 Z" fill="#FFFFFF" stroke="#222222" stroke-width="4" stroke-linejoin="round"/>
<path d="M 670.0,500.0 A 170,170 0 1,1 330.0,500.0 A 170,170 0 1,1 670.0,500.0 Z" fill="#FFFFFF" stroke="#222222" stroke-width="4" stroke-linejoin="round" />
<path d="M 500,500 L 557.9555495773441,484.4708572938488 C 592.3879532511287,461.731656763491 628.0,500.0 660.0,500.0 C 628.0,500.0 592.3879532511287,538.2683432365089 557.9555495773441,515.5291427061512 Z" fill="#FFFFFF" stroke="#222222" stroke-width="4" stroke-linejoin="round" />
<path d="M 500,500 L 557.9555495773441,515.5291427061512 C 599.144486137381,513.0526192220052 610.8512516844081,564.0 638.5640646055102,580.0 C 610.8512516844081,564.0 560.8761429008721,579.3353340291235 542.4264068711929,542.4264068711929 Z" fill="#FFFFFF" stroke="#222222" stroke-width="4" stroke-linejoin="round" />
<path d="M 500,500 L 542.4264068711929,542.4264068711929 C 579.3353340291235,560.8761429008721 564.0,610.8512516844081 580.0,638.5640646055101 C 564.0,610.8512516844081 513.0526192220052,599.144486137381 515.5291427061512,557.9555495773441 Z" fill="#FFFFFF" stroke="#222222" stroke-width="4" stroke-linejoin="round" />
<path d="M 500,500 L 515.5291427061512,557.9555495773441 C 538.2683432365089,592.3879532511287 500.0,628.0 500.0,660.0 C 500.0,628.0 461.731656763491,592.3879532511287 484.4708572938488,557.9555495773441 Z" fill="#FFFFFF" stroke="#222222" stroke-width="4" stroke-linejoin="round" />
<path d="M 500,500 L 484.4708572938488,557.9555495773441 C 486.94738077799485,599.144486137381 436.0,610.8512516844081 420.0,638.5640646055102 C 436.0,610.8512516844081 420.6646659708765,560.8761429008721 457.57359312880715,542.4264068711929 Z" fill="#FFFFFF" stroke="#222222" stroke-width="4" stroke-linejoin="round" />
<path d="M 500,500 L 457.57359312880715,542.4264068711929 C 439.1238570991279,579.3353340291235 389.14874831559183,564.0 361.4359353944898,580.0 C 389.14874831559183,564.0 400.855513862619,513.0526192220052 442.0444504226559,515.5291427061512 Z" fill="#FFFFFF" stroke="#222222" stroke-width="4" stroke-linejoin="round" />
<path d="M 500,500 L 442.0444504226559,515.5291427061512 C 407.6120467488713,538.2683432365089 372.0,500.0 340.0,500.0 C 372.0,500.0 407.6120467488713,461.73165676349106 442.0444504226559,484.4708572938488 Z" fill="#FFFFFF" stroke="#222222" stroke-width="4" stroke-linejoin="round" />
<path d="M 500,500 L 442.04445042265587,484.4708572938488 C 400.855513862619,486.94738077799485 389.14874831559183,436.00000000000006 361.4359353944898,420.00000000000006 C 389.14874831559183,436.00000000000006 439.1238570991279,420.6646659708765 457.57359312880715,457.57359312880715 Z" fill="#FFFFFF" stroke="#222222" stroke-width="4" stroke-linejoin="round" />
<path d="M 500,500 L 457.57359312880715,457.57359312880715 C 420.66466597087646,439.123857099128 435.99999999999994,389.1487483155919 419.99999999999994,361.43593539448983 C 435.99999999999994,389.1487483155919 486.94738077799474,400.855513862619 484.4708572938487,442.0444504226559 Z" fill="#FFFFFF" stroke="#222222" stroke-width="4" stroke-linejoin="round" />
<path d="M 500,500 L 484.4708572938488,442.0444504226559 C 461.73165676349095,407.61204674887136 500.0,372.0 499.99999999999994,340.0 C 500.0,372.0 538.268343236509,407.6120467488713 515.5291427061512,442.04445042265587 Z" fill="#FFFFFF" stroke="#222222" stroke-width="4" stroke-linejoin="round" />
<path d="M 500,500 L 515.5291427061512,442.0444504226559 C 513.0526192220052,400.855513862619 564.0,389.1487483155919 580.0,361.43593539448983 C 564.0,389.1487483155919 579.3353340291235,439.1238570991279 542.4264068711929,457.57359312880715 Z" fill="#FFFFFF" stroke="#222222" stroke-width="4" stroke-linejoin="round" />
<path d="M 500,500 L 542.4264068711929,457.57359312880715 C 560.8761429008721,420.6646659708765 610.8512516844081,435.99999999999994 638.5640646055101,419.99999999999994 C 610.8512516844081,435.99999999999994 599.144486137381,486.94738077799474 557.9555495773441,484.4708572938487 Z" fill="#FFFFFF" stroke="#222222" stroke-width="4" stroke-linejoin="round" />
<path d="M 500,500 L 520.0,500.0 L 569.2909649383465,528.7012574273817 L 514.142135623731,514.142135623731 Z" fill="#FFFFFF" stroke="#222222" stroke-width="4" stroke-linejoin="round"/>
<path d="M 500,500 L 514.142135623731,514.142135623731 L 528.7012574273817,569.2909649383465 L 500.0,520.0 Z" fill="#FFFFFF" stroke="#222222" stroke-width="4" stroke-linejoin="round"/>
<path d="M 500,500 L 500.0,520.0 L 471.29874257261827,569.2909649383465 L 485.85786437626905,514.142135623731 Z" fill="#FFFFFF" stroke="#222222" stroke-width="4" stroke-linejoin="round"/>
<path d="M 500,500 L 485.85786437626905,514.142135623731 L 430.7090350616535,528.7012574273817 L 480.0,500.0 Z" fill="#FFFFFF" stroke="#222222" stroke-width="4" stroke-linejoin="round"/>
<path d="M 500,500 L 480.0,500.0 L 430.7090350616535,471.29874257261827 L 485.85786437626905,485.85786437626905 Z" fill="#FFFFFF" stroke="#222222" stroke-width="4" stroke-linejoin="round"/>
<path d="M 500,500 L 485.85786437626905,485.85786437626905 L 471.2987425726182,430.7090350616535 L 500.0,480.0 Z" fill="#FFFFFF" stroke="#222222" stroke-width="4" stroke-linejoin="round"/>
<path d="M 500,500 L 500.0,480.0 L 528.7012574273817,430.7090350616535 L 514.142135623731,485.85786437626905 Z" fill="#FFFFFF" stroke="#222222" stroke-width="4" stroke-linejoin="round"/>
<path d="M 500,500 L 514.142135623731,485.85786437626905 L 569.2909649383465,471.2987425726182 L 520.0,500.0 Z" fill="#FFFFFF" stroke="#222222" stroke-width="4" stroke-linejoin="round"/>
<path d="M 530.0,500.0 A 30,30 0 1,1 470.0,500.0 A 30,30 0 1,1 530.0,500.0 Z" fill="#FFFFFF" stroke="#222222" stroke-width="4" stroke-linejoin="round" />
</svg>