<svg viewBox="0 0 1000 1000" xmlns="http://www.w3.org/2000/svg">
<path d="M 990.0,500.0 A 490,490 0 1,1 10.0,500.00000000000006 A 490,490 0 1,1 990.0,500.0 Z" fill="#FFFFFF" stroke="#000" stroke-width="8" />
<path d="M 500,500 L 848.9210668065948,472.5393164952543 C 918.7052801679138,467.0471797943051 884.0,500.0 980.0,500.0 C 884.0,500.0 918.7052801679138,532.9528202056949 848.9210668065948,527.4606835047457 Z" fill="#FFFFFF" stroke="#000" stroke-width="4" stroke-linejoin="round"/>
<path d="M 500,500 L 848.3886694285126,533.5460133820784 C 918.0664033142151,540.255216058494 878.1661771566878,566.6809002241013 972.7077214458599,583.3511252801266 C 878.1661771566878,566.6809002241013 906.6220089588053,605.1596017028654 838.8516741323377,587.6330014190545 Z" fill="#FFFFFF" stroke="#000" stroke-width="4" stroke-linejoin="round"/>
<path d="M 500,500 L 837.2706586230181,593.5334316273899 C 904.7247903476216,612.2401179528679 860.8419663817888,631.3357350370568 951.052457977236,664.169668796321 C 860.8419663817888,631.3357350370568 882.1837337681482,674.1711619156204 818.4864448067901,645.1426349296837 Z" fill="#FFFFFF" stroke="#000" stroke-width="4" stroke-linejoin="round"/>
<path d="M 500,500 L 815.9048495224513,650.6788838829033 C 879.0858194269415,680.8146606594839 832.5537550532244,692.0 915.6921938165306,740.0 C 832.5537550532244,692.0 846.1329992212466,737.8906195084298 788.4441660177055,698.2421829236915 Z" fill="#FFFFFF" stroke="#000" stroke-width="4" stroke-linejoin="round"/>
<path d="M 500,500 L 784.9404314247117,703.246034498829 C 841.9285177096541,743.8952413985946 794.1610661576876,746.830442119631 867.7013326971094,808.5380526495388 C 794.1610661576876,746.830442119631 799.5651886447563,794.3818910059374 749.6376572039636,745.3182425049479 Z" fill="#FFFFFF" stroke="#000" stroke-width="4" stroke-linejoin="round"/>
<path d="M 500,500 L 745.3182425049479,749.6376572039635 C 794.3818910059374,799.5651886447563 746.8304421196311,794.1610661576876 808.5380526495389,867.7013326971094 C 746.8304421196311,794.1610661576876 743.8952413985946,841.9285177096541 703.246034498829,784.9404314247117 Z" fill="#FFFFFF" stroke="#000" stroke-width="4" stroke-linejoin="round"/>
<path d="M 500,500 L 698.2421829236915,788.4441660177055 C 737.8906195084298,846.1329992212466 692.0,832.5537550532244 740.0,915.6921938165306 C 692.0,832.5537550532244 680.8146606594839,879.0858194269415 650.6788838829034,815.9048495224512 Z" fill="#FFFFFF" stroke="#000" stroke-width="4" stroke-linejoin="round"/>
<path d="M 500,500 L 645.1426349296837,818.4864448067901 C 674.1711619156205,882.1837337681482 631.3357350370568,860.8419663817888 664.169668796321,951.0524579772359 C 631.3357350370568,860.8419663817888 612.2401179528679,904.7247903476216 593.53343162739,837.2706586230181 Z" fill="#FFFFFF" stroke="#000" stroke-width="4" stroke-linejoin="round"/>
<path d="M 500,500 L 587.6330014190545,838.8516741323377 C 605.1596017028654,906.6220089588053 566.6809002241013,878.1661771566878 583.3511252801266,972.7077214458599 C 566.6809002241013,878.1661771566878 540.255216058494,918.066403314215 533.5460133820784,848.3886694285126 Z" fill="#FFFFFF" stroke="#000" stroke-width="4" stroke-linejoin="round"/>
<path d="M 500,500 L 527.4606835047457,848.9210668065948 C 532.9528202056949,918.7052801679138 500.0,884.0 500.00000000000006,980.0 C 500.0,884.0 467.0471797943052,918.7052801679138 472.5393164952543,848.9210668065948 Z" fill="#FFFFFF" stroke="#000" stroke-width="4" stroke-linejoin="round"/>
<path d="M 500,500 L 466.4539866179216,848.3886694285126 C 459.74478394150594,918.0664033142151 433.31909977589874,878.1661771566878 416.64887471987345,972.7077214458599 C 433.31909977589874,878.1661771566878 394.8403982971346,906.6220089588053 412.3669985809455,838.8516741323377 Z" fill="#FFFFFF" stroke="#000" stroke-width="4" stroke-linejoin="round"/>
<path d="M 500,500 L 406.4665683726102,837.2706586230181 C 387.75988204713224,904.7247903476217 368.6642649629433,860.8419663817888 335.8303312036791,951.052457977236 C 368.6642649629433,860.8419663817888 325.8288380843797,882.1837337681482 354.8573650703164,818.4864448067901 Z" fill="#FFFFFF" stroke="#000" stroke-width="4" stroke-linejoin="round"/>
<path d="M 500,500 L 349.3211161170968,815.9048495224513 C 319.1853393405161,879.0858194269415 308.0000000000001,832.5537550532244 260.0000000000001,915.6921938165306 C 308.0000000000001,832.5537550532244 262.1093804915703,846.1329992212466 301.7578170763086,788.4441660177056 Z" fill="#FFFFFF" stroke="#000" stroke-width="4" stroke-linejoin="round"/>
<path d="M 500,500 L 296.7539655011711,784.9404314247117 C 256.1047586014053,841.9285177096541 253.16955788036887,794.1610661576876 191.46194735046112,867.7013326971094 C 253.16955788036887,794.1610661576876 205.6181089940626,799.5651886447563 254.68175749505218,749.6376572039635 Z" fill="#FFFFFF" stroke="#000" stroke-width="4" stroke-linejoin="round"/>
<path d="M 500,500 L 250.3623427960365,745.3182425049479 C 200.43481135524377,794.3818910059374 205.83893384231249,746.8304421196311 132.29866730289064,808.5380526495389 C 205.83893384231249,746.8304421196311 158.07148229034595,743.8952413985947 215.05956857528832,703.246034498829 Z" fill="#FFFFFF" stroke="#000" stroke-width="4" stroke-linejoin="round"/>
<path d="M 500,500 L 211.5558339822946,698.2421829236916 C 153.8670007787535,737.89061950843 167.4462449467756,692.0000000000001 84.30780618346955,740.0000000000002 C 167.4462449467756,692.0000000000001 120.91418057305862,680.8146606594842 184.09515047754888,650.6788838829034 Z" fill="#FFFFFF" stroke="#000" stroke-width="4" stroke-linejoin="round"/>
<path d="M 500,500 L 181.51355519320992,645.1426349296837 C 117.8162662318519,674.1711619156205 139.15803361821122,631.3357350370568 48.947542022764026,664.169668796321 C 139.15803361821122,631.3357350370568 95.27520965237835,612.240117952868 162.72934137698195,593.53343162739 Z" fill="#FFFFFF" stroke="#000" stroke-width="4" stroke-linejoin="round"/>
<path d="M 500,500 L 161.14832586766227,587.6330014190545 C 93.37799104119478,605.1596017028653 121.83382284331213,566.6809002241013 27.292278554140125,583.3511252801266 C 121.83382284331213,566.6809002241013 81.93359668578489,540.255216058494 151.61133057148743,533.5460133820784 Z" fill="#FFFFFF" stroke="#000" stroke-width="4" stroke-linejoin="round"/>
<path d="M 500,500 L 151.0789331934052,527.4606835047458 C 81.29471983208623,532.9528202056949 116.0,500.00000000000006 20.0,500.00000000000006 C 116.0,500.00000000000006 81.29471983208623,467.0471797943052 151.0789331934052,472.5393164952543 Z" fill="#FFFFFF" stroke="#000" stroke-width="4" stroke-linejoin="round"/>
<path d="M 500,500 L 151.61133057148743,466.4539866179217 C 81.93359668578489,459.74478394150606 121.83382284331208,433.31909977589885 27.292278554140125,416.64887471987356 C 121.83382284331208,433.31909977589885 93.37799104119472,394.84039829713475 161.14832586766227,412.3669985809456 Z" fill="#FFFFFF" stroke="#000" stroke-width="4" stroke-linejoin="round"/>
<path d="M 500,500 L 162.72934137698195,406.46656837261014 C 95.2752096523783,387.7598820471321 139.15803361821116,368.6642649629432 48.94754202276397,335.83033120367907 C 139.15803361821116,368.6642649629432 117.81626623185184,325.82883808437964 181.51355519320987,354.85736507031635 Z" fill="#FFFFFF" stroke="#000" stroke-width="4" stroke-linejoin="round"/>
<path d="M 500,500 L 184.09515047754883,349.3211161170966 C 120.91418057305856,319.18533934051595 167.44624494677555,307.99999999999994 84.3078061834695,259.99999999999994 C 167.44624494677555,307.99999999999994 153.86700077875344,262.10938049157016 211.55583398229453,301.75781707630847 Z" fill="#FFFFFF" stroke="#000" stroke-width="4" stroke-linejoin="round"/>
<path d="M 500,500 L 215.0595685752882,296.75396550117125 C 158.07148229034584,256.1047586014055 205.83893384231231,253.16955788036904 132.2986673028904,191.46194735046134 C 205.83893384231231,253.16955788036904 200.4348113552436,205.61810899406277 250.36234279603633,254.6817574950523 Z" fill="#FFFFFF" stroke="#000" stroke-width="4" stroke-linejoin="round"/>
<path d="M 500,500 L 254.6817574950521,250.36234279603653 C 205.61810899406254,200.43481135524382 253.16955788036884,205.83893384231249 191.46194735046106,132.29866730289064 C 253.16955788036884,205.83893384231249 256.104758601405,158.07148229034613 296.7539655011709,215.05956857528844 Z" fill="#FFFFFF" stroke="#000" stroke-width="4" stroke-linejoin="round"/>
<path d="M 500,500 L 301.75781707630847,211.55583398229453 C 262.1093804915702,153.86700077875338 307.99999999999983,167.4462449467756 259.9999999999998,84.30780618346955 C 307.99999999999983,167.4462449467756 319.1853393405157,120.91418057305873 349.3211161170964,184.09515047754894 Z" fill="#FFFFFF" stroke="#000" stroke-width="4" stroke-linejoin="round"/>
<path d="M 500,500 L 354.8573650703163,181.51355519320992 C 325.8288380843795,117.8162662318519 368.66426496294326,139.15803361821116 335.83033120367907,48.94754202276397 C 368.66426496294326,139.15803361821116 387.75988204713235,95.2752096523783 406.4665683726103,162.7293413769819 Z" fill="#FFFFFF" stroke="#000" stroke-width="4" stroke-linejoin="round"/>
<path d="M 500,500 L 412.3669985809454,161.14832586766232 C 394.8403982971344,93.37799104119478 433.31909977589874,121.83382284331213 416.64887471987345,27.292278554140125 C 433.31909977589874,121.83382284331213 459.7447839415061,81.93359668578489 466.45398661792177,151.61133057148743 Z" fill="#FFFFFF" stroke="#000" stroke-width="4" stroke-linejoin="round"/>
<path d="M 500,500 L 472.53931649525407,151.0789331934052 C 467.04717979430484,81.29471983208623 499.99999999999994,116.0 499.9999999999999,20.0 C 499.99999999999994,116.0 532.9528202056949,81.29471983208623 527.4606835047458,151.0789331934052 Z" fill="#FFFFFF" stroke="#000" stroke-width="4" stroke-linejoin="round"/>
<path d="M 500,500 L 533.5460133820781,151.61133057148743 C 540.2552160584937,81.93359668578489 566.6809002241012,121.83382284331208 583.3511252801263,27.292278554140125 C 566.6809002241012,121.83382284331208 605.1596017028654,93.37799104119478 587.6330014190545,161.14832586766227 Z" fill="#FFFFFF" stroke="#000" stroke-width="4" stroke-linejoin="round"/>
<path d="M 500,500 L 593.5334316273902,162.729341376982 C 612.2401179528682,95.27520965237841 631.3357350370569,139.15803361821122 664.169668796321,48.947542022764026 C 631.3357350370569,139.15803361821122 674.1711619156204,117.81626623185178 645.1426349296836,181.5135551932098 Z" fill="#FFFFFF" stroke="#000" stroke-width="4" stroke-linejoin="round"/>
<path d="M 500,500 L 650.6788838829029,184.0951504775486 C 680.8146606594835,120.91418057305827 691.9999999999998,167.44624494677544 739.9999999999997,84.30780618346927 C 691.9999999999998,167.44624494677544 737.8906195084296,153.86700077875338 698.2421829236914,211.55583398229447 Z" fill="#FFFFFF" stroke="#000" stroke-width="4" stroke-linejoin="round"/>
<path d="M 500,500 L 703.246034498829,215.05956857528832 C 743.8952413985949,158.071482290346 746.830442119631,205.83893384231237 808.5380526495388,132.29866730289052 C 746.830442119631,205.83893384231237 794.3818910059372,200.4348113552436 745.3182425049476,250.36234279603633 Z" fill="#FFFFFF" stroke="#000" stroke-width="4" stroke-linejoin="round"/>
<path d="M 500,500 L 749.6376572039636,254.68175749505224 C 799.5651886447563,205.61810899406265 794.1610661576874,253.1695578803688 867.7013326971094,191.461947350461 C 794.1610661576874,253.1695578803688 841.9285177096539,256.104758601405 784.9404314247115,296.75396550117085 Z" fill="#FFFFFF" stroke="#000" stroke-width="4" stroke-linejoin="round"/>
<path d="M 500,500 L 788.4441660177055,301.75781707630847 C 846.1329992212466,262.10938049157016 832.5537550532244,308.0000000000001 915.6921938165306,260.00000000000017 C 832.5537550532244,308.0000000000001 879.0858194269416,319.18533934051635 815.9048495224513,349.32111611709695 Z" fill="#FFFFFF" stroke="#000" stroke-width="4" stroke-linejoin="round"/>
<path d="M 500,500 L 818.4864448067901,354.85736507031623 C 882.1837337681482,325.8288380843795 860.8419663817888,368.66426496294326 951.052457977236,335.83033120367907 C 860.8419663817888,368.66426496294326 904.7247903476217,387.75988204713235 837.2706586230181,406.4665683726103 Z" fill="#FFFFFF" stroke="#000" stroke-width="4" stroke-linejoin="round"/>
<path d="M 500,500 L 838.8516741323376,412.36699858094534 C 906.6220089588053,394.8403982971344 878.1661771566878,433.31909977589874 972.7077214458599,416.64887471987345 C 878.1661771566878,433.31909977589874 918.0664033142151,459.7447839415061 848.3886694285126,466.4539866179217 Z" fill="#FFFFFF" stroke="#000" stroke-width="4" stroke-linejoin="round"/>
<path d="M 500,500 L 750.0,500.0 L 896.5779445495241,552.2104768880206 L 741.4814565722671,564.7047612756302 Z" fill="#FFFFFF" stroke="#000" stroke-width="4" stroke-linejoin="round"/>
<path d="M 500,500 L 741.4814565722671,564.7047612756302 L 869.5518130045148,653.0733729460359 L 716.5063509461097,625.0 Z" fill="#FFFFFF" stroke="#000" stroke-width="4" stroke-linejoin="round"/>
<path d="M 500,500 L 716.5063509461097,625.0 L 817.3413361164942,743.5045716034882 L 676.776695296637,676.7766952966368 Z" fill="#FFFFFF" stroke="#000" stroke-width="4" stroke-linejoin="round"/>
<path d="M 500,500 L 676.776695296637,676.776695296637 L 743.5045716034883,817.3413361164941 L 625.0,716.5063509461097 Z" fill="#FFFFFF" stroke="#000" stroke-width="4" stroke-linejoin="round"/>
<path d="M 500,500 L 625.0,716.5063509461097 L 653.073372946036,869.5518130045148 L 564.7047612756302,741.4814565722671 Z" fill="#FFFFFF" stroke="#000" stroke-width="4" stroke-linejoin="round"/>
<path d="M 500,500 L 564.7047612756302,741.4814565722671 L 552.2104768880206,896.5779445495241 L 499.99999999999994,750.0 Z" fill="#FFFFFF" stroke="#000" stroke-width="4" stroke-linejoin="round"/>
<path d="M 500,500 L 500.0,750.0 L 447.78952311197935,896.5779445495241 L 435.29523872436977,741.4814565722671 Z" fill="#FFFFFF" stroke="#000" stroke-width="4" stroke-linejoin="round"/>
<path d="M 500,500 L 435.2952387243698,741.4814565722671 L 346.9266270539641,869.5518130045148 L 375.00000000000006,716.5063509461097 Z" fill="#FFFFFF" stroke="#000" stroke-width="4" stroke-linejoin="round"/>
<path d="M 500,500 L 375.00000000000006,716.5063509461097 L 256.4954283965119,817.3413361164942 L 323.2233047033632,676.776695296637 Z" fill="#FFFFFF" stroke="#000" stroke-width="4" stroke-linejoin="round"/>
<path d="M 500,500 L 323.22330470336317,676.776695296637 L 182.658663883506,743.5045716034883 L 283.4936490538904,625.0000000000001 Z" fill="#FFFFFF" stroke="#000" stroke-width="4" stroke-linejoin="round"/>
<path d="M 500,500 L 283.4936490538903,625.0 L 130.4481869954853,653.073372946036 L 258.51854342773294,564.7047612756303 Z" fill="#FFFFFF" stroke="#000" stroke-width="4" stroke-linejoin="round"/>
<path d="M 500,500 L 258.51854342773294,564.7047612756303 L 103.42205545047585,552.2104768880208 L 250.0,500.0000000000001 Z" fill="#FFFFFF" stroke="#000" stroke-width="4" stroke-linejoin="round"/>
<path d="M 500,500 L 250.0,500.00000000000006 L 103.4220554504758,447.78952311197946 L 258.5185434277329,435.29523872436994 Z" fill="#FFFFFF" stroke="#000" stroke-width="4" stroke-linejoin="round"/>
<path d="M 500,500 L 258.5185434277329,435.2952387243698 L 130.4481869954853,346.9266270539641 L 283.4936490538903,375.00000000000006 Z" fill="#FFFFFF" stroke="#000" stroke-width="4" stroke-linejoin="round"/>
<path d="M 500,500 L 283.4936490538903,375.00000000000006 L 182.65866388350582,256.4954283965119 L 323.22330470336306,323.2233047033632 Z" fill="#FFFFFF" stroke="#000" stroke-width="4" stroke-linejoin="round"/>
<path d="M 500,500 L 323.22330470336306,323.22330470336317 L 256.49542839651167,182.65866388350605 L 374.9999999999999,283.4936490538904 Z" fill="#FFFFFF" stroke="#000" stroke-width="4" stroke-linejoin="round"/>
<path d="M 500,500 L 374.9999999999999,283.4936490538904 L 346.9266270539639,130.4481869954854 L 435.2952387243696,258.518543427733 Z" fill="#FFFFFF" stroke="#000" stroke-width="4" stroke-linejoin="round"/>
<path d="M 500,500 L 435.2952387243698,258.5185434277329 L 447.78952311197935,103.42205545047585 L 499.99999999999994,250.0 Z" fill="#FFFFFF" stroke="#000" stroke-width="4" stroke-linejoin="round"/>
<path d="M 500,500 L 499.99999999999994,250.0 L 552.2104768880205,103.4220554504758 L 564.7047612756301,258.5185434277329 Z" fill="#FFFFFF" stroke="#000" stroke-width="4" stroke-linejoin="round"/>
<path d="M 500,500 L 564.7047612756301,258.5185434277329 L 653.0733729460356,130.44818699548523 L 624.9999999999998,283.49364905389024 Z" fill="#FFFFFF" stroke="#000" stroke-width="4" stroke-linejoin="round"/>
<path d="M 500,500 L 625.0,283.49364905389035 L 743.5045716034882,182.65866388350594 L 676.7766952966368,323.22330470336306 Z" fill="#FFFFFF" stroke="#000" stroke-width="4" stroke-linejoin="round"/>
<path d="M 500,500 L 676.7766952966368,323.22330470336306 L 817.341336116494,256.4954283965116 L 716.5063509461096,374.9999999999999 Z" fill="#FFFFFF" stroke="#000" stroke-width="4" stroke-linejoin="round"/>
<path d="M 500,500 L 716.5063509461096,374.9999999999999 L 869.5518130045145,346.92662705396384 L 741.481456572267,435.2952387243696 Z" fill="#FFFFFF" stroke="#000" stroke-width="4" stroke-linejoin="round"/>
<path d="M 500,500 L 741.481456572267,435.2952387243696 L 896.5779445495241,447.78952311197895 L 750.0,499.9999999999997 Z" fill="#FFFFFF" stroke="#000" stroke-width="4" stroke-linejoin="round"/>
<path d="M 800.0,500.0 A 300,300 0 1,1 200.0,500.00000000000006 A 300,300 0 1,1 800.0,500.0 Z" fill="#FFFFFF" stroke="#000" stroke-width="5" />
<path d="M 500,500 L 699.5717846477207,486.9193741539714 C 739.4861415772648,484.3032489847657 732.0,500.0 790.0,500.0 C 732.0,500.0 739.4861415772648,515.6967510152343 699.5717846477207,513.0806258460286 Z" fill="#FFFFFF" stroke="#000" stroke-width="3" stroke-linejoin="round"/>
<path d="M 500,500 L 699.5717846477207,513.0806258460286 C 739.4861415772648,515.6967510152343 730.015207838724,530.282076595052 787.519009798405,537.852595743815 C 730.015207838724,530.282076595052 735.3884672967753,546.8216772838708 696.157056080646,539.0180644032257 Z" fill="#FFFFFF" stroke="#000" stroke-width="3" stroke-linejoin="round"/>
<path d="M 500,500 L 696.157056080646,539.0180644032257 C 735.3884672967753,546.8216772838708 724.0947916990639,560.0460184637848 780.1184896238299,575.057523079731 C 724.0947916990639,560.0460184637848 727.2632310788254,577.1454716727587 689.3860258990212,564.2878930606323 Z" fill="#FFFFFF" stroke="#000" stroke-width="3" stroke-linejoin="round"/>
<path d="M 500,500 L 689.3860258990212,564.2878930606323 C 727.2632310788254,577.1454716727587 714.3400515426185,588.7825563087008 767.9250644282731,610.978195385876 C 714.3400515426185,588.7825563087008 715.2494579678453,606.1492856525603 679.3745483065377,588.4577380438002 Z" fill="#FFFFFF" stroke="#000" stroke-width="3" stroke-linejoin="round"/>
<path d="M 500,500 L 679.3745483065377,588.4577380438002 C 715.2494579678453,606.1492856525603 700.9178936779898,616.0 751.1473670974872,645.0 C 700.9178936779898,616.0 699.5527069526108,633.3368559247045 666.2939224605091,611.1140466039204 Z" fill="#FFFFFF" stroke="#000" stroke-width="3" stroke-linejoin="round"/>
<path d="M 500,500 L 666.2939224605091,611.1140466039204 C 699.5527069526108,633.3368559247045 684.0579749475665,641.2326515300232 730.0724686844582,676.540814412529 C 684.0579749475665,641.2326515300232 680.4415537949546,658.2429956240165 650.3679614957955,631.8691630200137 Z" fill="#FFFFFF" stroke="#000" stroke-width="3" stroke-linejoin="round"/>
<path d="M 500,500 L 650.3679614957955,631.8691630200137 C 680.4415537949546,658.2429956240165 664.048773235279,664.048773235279 705.0609665440988,705.0609665440988 C 664.048773235279,664.048773235279 658.2429956240165,680.4415537949546 631.8691630200137,650.3679614957955 Z" fill="#FFFFFF" stroke="#000" stroke-width="3" stroke-linejoin="round"/>
<path d="M 500,500 L 631.8691630200137,650.3679614957955 C 658.2429956240165,680.4415537949545 641.2326515300232,684.0579749475665 676.540814412529,730.0724686844582 C 641.2326515300232,684.0579749475665 633.3368559247045,699.5527069526108 611.1140466039204,666.2939224605091 Z" fill="#FFFFFF" stroke="#000" stroke-width="3" stroke-linejoin="round"/>
<path d="M 500,500 L 611.1140466039205,666.2939224605091 C 633.3368559247045,699.5527069526108 616.0,700.9178936779897 645.0,751.1473670974872 C 616.0,700.9178936779897 606.1492856525604,715.2494579678452 588.4577380438003,679.3745483065377 Z" fill="#FFFFFF" stroke="#000" stroke-width="3" stroke-linejoin="round"/>
<path d="M 500,500 L 588.4577380438002,679.3745483065377 C 606.1492856525603,715.2494579678453 588.7825563087008,714.3400515426185 610.978195385876,767.9250644282731 C 588.7825563087008,714.3400515426185 577.1454716727588,727.2632310788254 564.2878930606323,689.3860258990211 Z" fill="#FFFFFF" stroke="#000" stroke-width="3" stroke-linejoin="round"/>
<path d="M 500,500 L 564.2878930606323,689.3860258990212 C 577.1454716727587,727.2632310788254 560.0460184637848,724.0947916990639 575.057523079731,780.1184896238299 C 560.0460184637848,724.0947916990639 546.8216772838708,735.3884672967753 539.0180644032257,696.157056080646 Z" fill="#FFFFFF" stroke="#000" stroke-width="3" stroke-linejoin="round"/>
<path d="M 500,500 L 539.0180644032257,696.157056080646 C 546.8216772838708,735.3884672967753 530.282076595052,730.015207838724 537.852595743815,787.519009798405 C 530.282076595052,730.015207838724 515.6967510152344,739.4861415772648 513.0806258460286,699.5717846477207 Z" fill="#FFFFFF" stroke="#000" stroke-width="3" stroke-linejoin="round"/>
<path d="M 500,500 L 513.0806258460286,699.5717846477207 C 515.6967510152343,739.4861415772648 500.0,732.0 500.0,790.0 C 500.0,732.0 484.3032489847657,739.4861415772648 486.91937415397143,699.5717846477207 Z" fill="#FFFFFF" stroke="#000" stroke-width="3" stroke-linejoin="round"/>
<path d="M 500,500 L 486.9193741539714,699.5717846477207 C 484.3032489847657,739.4861415772648 469.717923404948,730.015207838724 462.14740425618504,787.519009798405 C 469.717923404948,730.015207838724 453.17832271612923,735.3884672967753 460.98193559677435,696.157056080646 Z" fill="#FFFFFF" stroke="#000" stroke-width="3" stroke-linejoin="round"/>
<path d="M 500,500 L 460.98193559677435,696.157056080646 C 453.17832271612923,735.3884672967753 439.9539815362152,724.0947916990639 424.94247692026903,780.1184896238299 C 439.9539815362152,724.0947916990639 422.85452832724127,727.2632310788254 435.71210693936774,689.3860258990212 Z" fill="#FFFFFF" stroke="#000" stroke-width="3" stroke-linejoin="round"/>
<path d="M 500,500 L 435.71210693936774,689.3860258990212 C 422.85452832724127,727.2632310788254 411.21744369129925,714.3400515426185 389.02180461412405,767.9250644282731 C 411.21744369129925,714.3400515426185 393.85071434743975,715.2494579678453 411.54226195619975,679.3745483065377 Z" fill="#FFFFFF" stroke="#000" stroke-width="3" stroke-linejoin="round"/>
<path d="M 500,500 L 411.54226195619975,679.3745483065377 C 393.85071434743975,715.2494579678453 384.00000000000006,700.9178936779898 355.00000000000006,751.1473670974872 C 384.00000000000006,700.9178936779898 366.6631440752955,699.5527069526108 388.8859533960796,666.2939224605091 Z" fill="#FFFFFF" stroke="#000" stroke-width="3" stroke-linejoin="round"/>
<path d="M 500,500 L 388.88595339607957,666.2939224605091 C 366.66314407529546,699.5527069526108 358.7673484699768,684.0579749475665 323.459185587471,730.0724686844582 C 358.7673484699768,684.0579749475665 341.75700437598346,680.4415537949546 368.13083697998627,650.3679614957955 Z" fill="#FFFFFF" stroke="#000" stroke-width="3" stroke-linejoin="round"/>
<path d="M 500,500 L 368.13083697998627,650.3679614957955 C 341.75700437598346,680.4415537949546 335.951226764721,664.048773235279 294.93903345590127,705.0609665440988 C 335.951226764721,664.048773235279 319.55844620504547,658.2429956240165 349.63203850420456,631.8691630200137 Z" fill="#FFFFFF" stroke="#000" stroke-width="3" stroke-linejoin="round"/>
<path d="M 500,500 L 349.63203850420456,631.8691630200137 C 319.55844620504547,658.2429956240165 315.94202505243345,641.2326515300233 269.92753131554184,676.540814412529 C 315.94202505243345,641.2326515300233 300.44729304738917,633.3368559247047 333.706077539491,611.1140466039205 Z" fill="#FFFFFF" stroke="#000" stroke-width="3" stroke-linejoin="round"/>
<path d="M 500,500 L 333.70607753949093,611.1140466039204 C 300.4472930473891,633.3368559247045 299.0821063220102,616.0 248.85263290251277,645.0 C 299.0821063220102,616.0 284.75054203215484,606.1492856525604 320.6254516934623,588.4577380438003 Z" fill="#FFFFFF" stroke="#000" stroke-width="3" stroke-linejoin="round"/>
<path d="M 500,500 L 320.6254516934623,588.4577380438003 C 284.75054203215484,606.1492856525604 285.65994845738146,588.7825563087008 232.07493557172683,610.978195385876 C 285.65994845738146,588.7825563087008 272.73676892117464,577.1454716727588 310.6139741009789,564.2878930606323 Z" fill="#FFFFFF" stroke="#000" stroke-width="3" stroke-linejoin="round"/>
<path d="M 500,500 L 310.6139741009789,564.2878930606323 C 272.73676892117464,577.1454716727588 275.9052083009362,560.0460184637849 219.88151037617024,575.0575230797311 C 275.9052083009362,560.0460184637849 264.6115327032247,546.8216772838708 303.8429439193539,539.0180644032257 Z" fill="#FFFFFF" stroke="#000" stroke-width="3" stroke-linejoin="round"/>
<path d="M 500,500 L 303.8429439193539,539.0180644032257 C 264.6115327032247,546.8216772838708 269.984792161276,530.2820765950521 212.48099020159498,537.8525957438151 C 269.984792161276,530.2820765950521 260.51385842273515,515.6967510152344 300.42821535227927,513.0806258460287 Z" fill="#FFFFFF" stroke="#000" stroke-width="3" stroke-linejoin="round"/>
<path d="M 500,500 L 300.42821535227927,513.0806258460286 C 260.51385842273515,515.6967510152343 268.0,500.0 210.0,500.00000000000006 C 268.0,500.0 260.51385842273515,484.30324898476573 300.42821535227927,486.91937415397143 Z" fill="#FFFFFF" stroke="#000" stroke-width="3" stroke-linejoin="round"/>
<path d="M 500,500 L 300.42821535227927,486.9193741539713 C 260.51385842273515,484.3032489847656 269.984792161276,469.717923404948 212.48099020159498,462.147404256185 C 269.984792161276,469.717923404948 264.6115327032247,453.1783227161292 303.8429439193539,460.98193559677435 Z" fill="#FFFFFF" stroke="#000" stroke-width="3" stroke-linejoin="round"/>
<path d="M 500,500 L 303.8429439193539,460.98193559677435 C 264.6115327032247,453.1783227161292 275.9052083009361,439.95398153621517 219.88151037617018,424.942476920269 C 275.9052083009361,439.95398153621517 272.73676892117464,422.8545283272412 310.61397410097885,435.7121069393677 Z" fill="#FFFFFF" stroke="#000" stroke-width="3" stroke-linejoin="round"/>
<path d="M 500,500 L 310.61397410097885,435.7121069393677 C 272.73676892117464,422.8545283272412 285.65994845738146,411.2174436912992 232.07493557172683,389.021804614124 C 285.65994845738146,411.2174436912992 284.7505420321548,393.85071434743975 320.6254516934623,411.5422619561998 Z" fill="#FFFFFF" stroke="#000" stroke-width="3" stroke-linejoin="round"/>
<path d="M 500,500 L 320.6254516934623,411.5422619561998 C 284.7505420321548,393.85071434743975 299.0821063220102,384.00000000000006 248.85263290251274,355.0000000000001 C 299.0821063220102,384.00000000000006 300.44729304738905,366.6631440752955 333.70607753949093,388.8859533960796 Z" fill="#FFFFFF" stroke="#000" stroke-width="3" stroke-linejoin="round"/>
<path d="M 500,500 L 333.70607753949093,388.88595339607957 C 300.44729304738917,366.66314407529546 315.94202505243345,358.7673484699768 269.92753131554184,323.459185587471 C 315.94202505243345,358.7673484699768 319.5584462050454,341.75700437598346 349.6320385042045,368.13083697998627 Z" fill="#FFFFFF" stroke="#000" stroke-width="3" stroke-linejoin="round"/>
<path d="M 500,500 L 349.63203850420444,368.13083697998627 C 319.55844620504536,341.75700437598357 335.9512267647209,335.95122676472107 294.9390334559011,294.9390334559013 C 335.9512267647209,335.95122676472107 341.75700437598334,319.5584462050455 368.13083697998616,349.6320385042046 Z" fill="#FFFFFF" stroke="#000" stroke-width="3" stroke-linejoin="round"/>
<path d="M 500,500 L 368.13083697998616,349.63203850420456 C 341.75700437598346,319.55844620504547 358.76734846997675,315.9420250524335 323.459185587471,269.92753131554184 C 358.76734846997675,315.9420250524335 366.66314407529546,300.44729304738917 388.88595339607957,333.70607753949093 Z" fill="#FFFFFF" stroke="#000" stroke-width="3" stroke-linejoin="round"/>
<path d="M 500,500 L 388.8859533960794,333.70607753949105 C 366.6631440752953,300.4472930473893 383.9999999999999,299.0821063220103 354.9999999999999,248.85263290251285 C 383.9999999999999,299.0821063220103 393.8507143474397,284.75054203215484 411.5422619561997,320.6254516934623 Z" fill="#FFFFFF" stroke="#000" stroke-width="3" stroke-linejoin="round"/>
<path d="M 500,500 L 411.5422619561997,320.6254516934623 C 393.8507143474397,284.75054203215484 411.21744369129925,285.65994845738146 389.02180461412405,232.07493557172683 C 411.21744369129925,285.65994845738146 422.8545283272414,272.7367689211746 435.7121069393678,310.6139741009788 Z" fill="#FFFFFF" stroke="#000" stroke-width="3" stroke-linejoin="round"/>
<path d="M 500,500 L 435.71210693936763,310.6139741009789 C 422.85452832724116,272.73676892117464 439.9539815362152,275.9052083009361 424.94247692026903,219.88151037617018 C 439.9539815362152,275.9052083009361 453.17832271612934,264.61153270322467 460.98193559677446,303.8429439193539 Z" fill="#FFFFFF" stroke="#000" stroke-width="3" stroke-linejoin="round"/>
<path d="M 500,500 L 460.9819355967743,303.84294391935396 C 453.1783227161291,264.6115327032247 469.717923404948,269.984792161276 462.14740425618504,212.48099020159498 C 469.717923404948,269.984792161276 484.30324898476573,260.51385842273515 486.91937415397143,300.42821535227927 Z" fill="#FFFFFF" stroke="#000" stroke-width="3" stroke-linejoin="round"/>
<path d="M 500,500 L 486.91937415397126,300.42821535227927 C 484.30324898476556,260.51385842273515 499.99999999999994,268.0 499.99999999999994,210.0 C 499.99999999999994,268.0 515.6967510152343,260.51385842273515 513.0806258460286,300.42821535227927 Z" fill="#FFFFFF" stroke="#000" stroke-width="3" stroke-linejoin="round"/>
<path d="M 500,500 L 513.0806258460285,300.42821535227927 C 515.6967510152342,260.5138584227351 530.2820765950519,269.984792161276 537.8525957438148,212.48099020159498 C 530.2820765950519,269.984792161276 546.8216772838708,264.6115327032247 539.0180644032257,303.8429439193539 Z" fill="#FFFFFF" stroke="#000" stroke-width="3" stroke-linejoin="round"/>
<path d="M 500,500 L 539.0180644032255,303.84294391935384 C 546.8216772838706,264.6115327032246 560.0460184637847,275.9052083009361 575.0575230797309,219.88151037617018 C 560.0460184637847,275.9052083009361 577.1454716727587,272.73676892117464 564.2878930606323,310.61397410097885 Z" fill="#FFFFFF" stroke="#000" stroke-width="3" stroke-linejoin="round"/>
<path d="M 500,500 L 564.2878930606321,310.6139741009788 C 577.1454716727585,272.73676892117453 588.7825563087007,285.65994845738146 610.9781953858759,232.07493557172677 C 588.7825563087007,285.65994845738146 606.1492856525603,284.7505420321548 588.4577380438002,320.6254516934623 Z" fill="#FFFFFF" stroke="#000" stroke-width="3" stroke-linejoin="round"/>
<path d="M 500,500 L 588.4577380438002,320.6254516934623 C 606.1492856525603,284.7505420321548 616.0,299.08210632201025 645.0,248.8526329025128 C 616.0,299.08210632201025 633.3368559247047,300.44729304738917 611.1140466039205,333.706077539491 Z" fill="#FFFFFF" stroke="#000" stroke-width="3" stroke-linejoin="round"/>
<path d="M 500,500 L 611.1140466039202,333.7060775394908 C 633.3368559247043,300.44729304738894 641.2326515300231,315.94202505243334 676.5408144125288,269.9275313155416 C 641.2326515300231,315.94202505243334 658.2429956240164,319.55844620504536 631.8691630200137,349.63203850420444 Z" fill="#FFFFFF" stroke="#000" stroke-width="3" stroke-linejoin="round"/>
<path d="M 500,500 L 631.8691630200137,349.63203850420444 C 658.2429956240164,319.55844620504536 664.048773235279,335.9512267647209 705.0609665440987,294.93903345590115 C 664.048773235279,335.9512267647209 680.4415537949546,341.7570043759835 650.3679614957955,368.13083697998627 Z" fill="#FFFFFF" stroke="#000" stroke-width="3" stroke-linejoin="round"/>
<path d="M 500,500 L 650.3679614957954,368.13083697998616 C 680.4415537949544,341.75700437598334 684.0579749475664,358.7673484699767 730.0724686844582,323.4591855874709 C 684.0579749475664,358.7673484699767 699.5527069526108,366.66314407529546 666.2939224605091,388.88595339607957 Z" fill="#FFFFFF" stroke="#000" stroke-width="3" stroke-linejoin="round"/>
<path d="M 500,500 L 666.293922460509,388.8859533960794 C 699.5527069526107,366.6631440752953 700.9178936779897,383.9999999999999 751.1473670974872,354.9999999999999 C 700.9178936779897,383.9999999999999 715.2494579678452,393.85071434743963 679.3745483065377,411.5422619561997 Z" fill="#FFFFFF" stroke="#000" stroke-width="3" stroke-linejoin="round"/>
<path d="M 500,500 L 679.3745483065377,411.5422619561997 C 715.2494579678452,393.85071434743963 714.3400515426185,411.2174436912992 767.9250644282731,389.021804614124 C 714.3400515426185,411.2174436912992 727.2632310788254,422.8545283272414 689.3860258990212,435.7121069393678 Z" fill="#FFFFFF" stroke="#000" stroke-width="3" stroke-linejoin="round"/>
<path d="M 500,500 L 689.386025899021,435.71210693936746 C 727.2632310788252,422.8545283272409 724.0947916990638,439.953981536215 780.1184896238298,424.94247692026875 C 724.0947916990638,439.953981536215 735.3884672967753,453.1783227161291 696.157056080646,460.98193559677424 Z" fill="#FFFFFF" stroke="#000" stroke-width="3" stroke-linejoin="round"/>
<path d="M 500,500 L 696.157056080646,460.98193559677424 C 735.3884672967753,453.1783227161291 730.015207838724,469.717923404948 787.519009798405,462.14740425618504 C 730.015207838724,469.717923404948 739.4861415772648,484.30324898476573 699.5717846477207,486.91937415397143 Z" fill="#FFFFFF" stroke="#000" stroke-width="3" stroke-linejoin="round"/>
<path d="M 500,500 L 617.6942336483877,476.5891613580646 L 720.0,500.0 L 617.6942336483877,523.4108386419354 Z" fill="#FFFFFF" stroke="#000" stroke-width="4" stroke-linejoin="round"/>
<path d="M 500,500 L 617.6942336483877,523.4108386419354 L 703.2534971524831,584.1903551203197 L 599.7763534763054,566.6684279623523 Z" fill="#FFFFFF" stroke="#000" stroke-width="4" stroke-linejoin="round"/>
<path d="M 500,500 L 599.7763534763054,566.6684279623523 L 655.5634918610405,655.5634918610405 L 566.6684279623523,599.7763534763054 Z" fill="#FFFFFF" stroke="#000" stroke-width="4" stroke-linejoin="round"/>
<path d="M 500,500 L 566.6684279623523,599.7763534763054 L 584.1903551203197,703.2534971524831 L 523.4108386419354,617.6942336483877 Z" fill="#FFFFFF" stroke="#000" stroke-width="4" stroke-linejoin="round"/>
<path d="M 500,500 L 523.4108386419354,617.6942336483877 L 500.0,720.0 L 476.58916135806464,617.6942336483877 Z" fill="#FFFFFF" stroke="#000" stroke-width="4" stroke-linejoin="round"/>
<path d="M 500,500 L 476.58916135806464,617.6942336483877 L 415.80964487968026,703.2534971524831 L 433.3315720376478,599.7763534763054 Z" fill="#FFFFFF" stroke="#000" stroke-width="4" stroke-linejoin="round"/>
<path d="M 500,500 L 433.3315720376478,599.7763534763054 L 344.43650813895954,655.5634918610405 L 400.2236465236946,566.6684279623523 Z" fill="#FFFFFF" stroke="#000" stroke-width="4" stroke-linejoin="round"/>
<path d="M 500,500 L 400.2236465236946,566.6684279623523 L 296.7465028475169,584.1903551203197 L 382.30576635161236,523.4108386419355 Z" fill="#FFFFFF" stroke="#000" stroke-width="4" stroke-linejoin="round"/>
<path d="M 500,500 L 382.30576635161236,523.4108386419355 L 280.0,500.0 L 382.30576635161236,476.5891613580646 Z" fill="#FFFFFF" stroke="#000" stroke-width="4" stroke-linejoin="round"/>
<path d="M 500,500 L 382.30576635161236,476.5891613580646 L 296.7465028475169,415.80964487968026 L 400.2236465236945,433.3315720376478 Z" fill="#FFFFFF" stroke="#000" stroke-width="4" stroke-linejoin="round"/>
<path d="M 500,500 L 400.2236465236945,433.3315720376478 L 344.43650813895954,344.43650813895954 L 433.33157203764773,400.2236465236946 Z" fill="#FFFFFF" stroke="#000" stroke-width="4" stroke-linejoin="round"/>
<path d="M 500,500 L 433.3315720376477,400.22364652369464 L 415.80964487968015,296.746502847517 L 476.5891613580646,382.30576635161236 Z" fill="#FFFFFF" stroke="#000" stroke-width="4" stroke-linejoin="round"/>
<path d="M 500,500 L 476.5891613580646,382.30576635161236 L 499.99999999999994,280.0 L 523.4108386419354,382.30576635161236 Z" fill="#FFFFFF" stroke="#000" stroke-width="4" stroke-linejoin="round"/>
<path d="M 500,500 L 523.4108386419354,382.30576635161236 L 584.1903551203199,296.7465028475169 L 566.6684279623523,400.2236465236946 Z" fill="#FFFFFF" stroke="#000" stroke-width="4" stroke-linejoin="round"/>
<path d="M 500,500 L 566.6684279623522,400.2236465236945 L 655.5634918610403,344.43650813895954 L 599.7763534763054,433.33157203764773 Z" fill="#FFFFFF" stroke="#000" stroke-width="4" stroke-linejoin="round"/>
<path d="M 500,500 L 599.7763534763053,433.3315720376477 L 703.2534971524831,415.8096448796801 L 617.6942336483876,476.58916135806453 Z" fill="#FFFFFF" stroke="#000" stroke-width="4" stroke-linejoin="round"/>
<path d="M 640.0,500.0 A 140,140 0 1,1 360.0,500.0 A 140,140 0 1,1 640.0,500.0 Z" fill="#FFFFFF" stroke="#000" stroke-width="4" />
<path d="M 500,500 L 540.0,500.0 C 548.0,500.0 600.4562859340631,526.9171806906621 625.5703574175789,533.6464758633277 C 600.4562859340631,526.9171806906621 541.569219381653,524.0 534.6410161513776,520.0 Z" fill="#FFFFFF" stroke="#000" stroke-width="3" stroke-linejoin="round"/>
<path d="M 500,500 L 534.6410161513776,520.0 C 541.569219381653,524.0 573.539105243401,573.539105243401 591.9238815542512,591.9238815542512 C 573.539105243401,573.539105243401 524.0,541.569219381653 520.0,534.6410161513776 Z" fill="#FFFFFF" stroke="#000" stroke-width="3" stroke-linejoin="round"/>
<path d="M 500,500 L 520.0,534.6410161513776 C 524.0,541.569219381653 526.9171806906622,600.4562859340631 533.6464758633277,625.5703574175789 C 526.9171806906622,600.4562859340631 500.0,548.0 500.0,540.0 Z" fill="#FFFFFF" stroke="#000" stroke-width="3" stroke-linejoin="round"/>
<path d="M 500,500 L 500.0,540.0 C 500.0,548.0 473.0828193093379,600.4562859340631 466.3535241366723,625.5703574175789 C 473.0828193093379,600.4562859340631 476.0,541.569219381653 480.0,534.6410161513776 Z" fill="#FFFFFF" stroke="#000" stroke-width="3" stroke-linejoin="round"/>
<path d="M 500,500 L 480.0,534.6410161513776 C 476.0,541.569219381653 426.46089475659903,573.539105243401 408.0761184457488,591.9238815542512 C 426.46089475659903,573.539105243401 458.43078061834694,524.0 465.3589838486225,520.0 Z" fill="#FFFFFF" stroke="#000" stroke-width="3" stroke-linejoin="round"/>
<path d="M 500,500 L 465.3589838486225,520.0 C 458.43078061834694,524.0 399.5437140659369,526.9171806906621 374.42964258242114,533.6464758633276 C 399.5437140659369,526.9171806906621 452.0,500.0 460.0,500.0 Z" fill="#FFFFFF" stroke="#000" stroke-width="3" stroke-linejoin="round"/>
<path d="M 500,500 L 460.0,500.0 C 452.0,500.0 399.5437140659369,473.0828193093378 374.42964258242114,466.3535241366723 C 399.5437140659369,473.0828193093378 458.43078061834694,476.0 465.3589838486225,480.0 Z" fill="#FFFFFF" stroke="#000" stroke-width="3" stroke-linejoin="round"/>
<path d="M 500,500 L 465.3589838486224,480.0 C 458.43078061834694,476.0 426.46089475659903,426.46089475659903 408.0761184457488,408.0761184457488 C 426.46089475659903,426.46089475659903 476.0,458.43078061834694 480.0,465.3589838486225 Z" fill="#FFFFFF" stroke="#000" stroke-width="3" stroke-linejoin="round"/>
<path d="M 500,500 L 480.0,465.3589838486225 C 476.0,458.43078061834694 473.08281930933776,399.5437140659369 466.3535241366722,374.42964258242114 C 473.08281930933776,399.5437140659369 499.99999999999994,452.0 499.99999999999994,460.0 Z" fill="#FFFFFF" stroke="#000" stroke-width="3" stroke-linejoin="round"/>
<path d="M 500,500 L 500.0,460.0 C 500.0,452.0 526.9171806906621,399.5437140659369 533.6464758633276,374.42964258242114 C 526.9171806906621,399.5437140659369 524.0,458.43078061834694 520.0,465.3589838486224 Z" fill="#FFFFFF" stroke="#000" stroke-width="3" stroke-linejoin="round"/>
<path d="M 500,500 L 520.0,465.3589838486225 C 524.0,458.43078061834694 573.539105243401,426.46089475659903 591.9238815542511,408.0761184457488 C 573.539105243401,426.46089475659903 541.569219381653,476.0 534.6410161513776,480.0 Z" fill="#FFFFFF" stroke="#000" stroke-width="3" stroke-linejoin="round"/>
<path d="M 500,500 L 534.6410161513776,480.0 C 541.569219381653,476.0 600.4562859340631,473.08281930933776 625.5703574175789,466.3535241366722 C 600.4562859340631,473.08281930933776 548.0,499.99999999999994 540.0,499.99999999999994 Z" fill="#FFFFFF" stroke="#000" stroke-width="3" stroke-linejoin="round"/>
<path d="M 550.0,500.0 A 50,50 0 1,1 450.0,500.0 A 50,50 0 1,1 550.0,500.0 Z" fill="#FFFFFF" stroke="#000" stroke-width="3" />
<path d="M 500,500 L 500.0,500.0 L 545.0,500.0 L 500.0,500.0 Z" fill="#FFFFFF" stroke="#000" stroke-width="2" stroke-linejoin="round"/>
<path d="M 500,500 L 500.0,500.0 L 531.8198051533947,531.8198051533947 L 500.0,500.0 Z" fill="#FFFFFF" stroke="#000" stroke-width="2" stroke-linejoin="round"/>
<path d="M 500,500 L 500.0,500.0 L 500.0,545.0 L 500.0,500.0 Z" fill="#FFFFFF" stroke="#000" stroke-width="2" stroke-linejoin="round"/>
<path d="M 500,500 L 500.0,500.0 L 468.1801948466054,531.8198051533947 L 500.0,500.0 Z" fill="#FFFFFF" stroke="#000" stroke-width="2" stroke-linejoin="round"/>
<path d="M 500,500 L 500.0,500.0 L 455.0,500.0 L 500.0,500.0 Z" fill="#FFFFFF" stroke="#000" stroke-width="2" stroke-linejoin="round"/>
<path d="M 500,500 L 500.0,500.0 L 468.18019484660533,468.1801948466054 L 500.0,500.0 Z" fill="#FFFFFF" stroke="#000" stroke-width="2" stroke-linejoin="round"/>
<path d="M 500,500 L 500.0,500.0 L 500.0,455.0 L 500.0,500.0 Z" fill="#FFFFFF" stroke="#000" stroke-width="2" stroke-linejoin="round"/>
<path d="M 500,500 L 500.0,500.0 L 531.8198051533947,468.18019484660533 L 500.0,500.0 Z" fill="#FFFFFF" stroke="#000" stroke-width="2" stroke-linejoin="round"/>
</svg>