<svg viewBox="0 0 1000 1000" xmlns="http://www.w3.org/2000/svg">
<path d="M 990.0,500.0 A 490,490 0 1,1 10.0,500.00000000000006 A 490,490 0 1,1 990.0,500.0 Z" fill="#FFFFFF" stroke="#000" stroke-width="8" />
<path d="M 500,500 L 899.5181824820689,480.3729302690328 L 990.0,500.0 L 899.5181824820689,519.6270697309672 Z" fill="#FFFFFF" stroke="#111" stroke-width="3" stroke-linejoin="round"/>
<path d="M 500,500 L 899.5181824820689,519.6270697309672 L 987.6405160693764,548.0283987614847 L 895.6706039859124,558.6921897821447 Z" fill="#FFFFFF" stroke="#111" stroke-width="3" stroke-linejoin="round"/>
<path d="M 500,500 L 895.6706039859124,558.6921897821447 L 980.5847873975829,595.5942577879028 L 888.0125012778176,597.1920719613056 Z" fill="#FFFFFF" stroke="#111" stroke-width="3" stroke-linejoin="round"/>
<path d="M 500,500 L 888.0125012778176,597.1920719613056 L 968.9007645087823,642.2394918546865 L 876.6176260732084,634.755941356888 Z" fill="#FFFFFF" stroke="#111" stroke-width="3" stroke-linejoin="round"/>
<path d="M 500,500 L 876.6176260732084,634.755941356888 L 952.7009709305305,687.514881858894 L 861.5957172493773,671.0220373721129 Z" fill="#FFFFFF" stroke="#111" stroke-width="3" stroke-linejoin="round"/>
<path d="M 500,500 L 861.5957172493773,671.0220373721129 L 932.141419530694,730.9844010447389 L 843.0914440001088,705.6410976772886 Z" fill="#FFFFFF" stroke="#111" stroke-width="3" stroke-linejoin="round"/>
<path d="M 500,500 L 843.0914440001088,705.6410976772886 L 907.4201100282471,772.2294141796051 L 821.283012592258,738.2797217969734 Z" fill="#FFFFFF" stroke="#111" stroke-width="3" stroke-linejoin="round"/>
<path d="M 500,500 L 821.283012592258,738.2797217969734 L 878.7751221477411,810.8527092401863 L 796.3804501419837,768.6235819388073 Z" fill="#FFFFFF" stroke="#111" stroke-width="3" stroke-linejoin="round"/>
<path d="M 500,500 L 796.3804501419837,768.6235819388073 L 846.4823227814084,846.4823227814084 L 768.6235819388073,796.3804501419836 Z" fill="#FFFFFF" stroke="#111" stroke-width="3" stroke-linejoin="round"/>
<path d="M 500,500 L 768.6235819388073,796.3804501419836 L 810.8527092401863,878.7751221477411 L 738.2797217969734,821.2830125922579 Z" fill="#FFFFFF" stroke="#111" stroke-width="3" stroke-linejoin="round"/>
<path d="M 500,500 L 738.2797217969734,821.2830125922579 L 772.2294141796051,907.4201100282471 L 705.6410976772886,843.0914440001088 Z" fill="#FFFFFF" stroke="#111" stroke-width="3" stroke-linejoin="round"/>
<path d="M 500,500 L 705.6410976772887,843.0914440001088 L 730.9844010447389,932.1414195306938 L 671.0220373721129,861.5957172493773 Z" fill="#FFFFFF" stroke="#111" stroke-width="3" stroke-linejoin="round"/>
<path d="M 500,500 L 671.0220373721129,861.5957172493773 L 687.514881858894,952.7009709305305 L 634.755941356888,876.6176260732084 Z" fill="#FFFFFF" stroke="#111" stroke-width="3" stroke-linejoin="round"/>
<path d="M 500,500 L 634.755941356888,876.6176260732084 L 642.2394918546865,968.9007645087825 L 597.1920719613055,888.0125012778176 Z" fill="#FFFFFF" stroke="#111" stroke-width="3" stroke-linejoin="round"/>
<path d="M 500,500 L 597.1920719613056,888.0125012778176 L 595.5942577879028,980.5847873975829 L 558.6921897821447,895.6706039859124 Z" fill="#FFFFFF" stroke="#111" stroke-width="3" stroke-linejoin="round"/>
<path d="M 500,500 L 558.6921897821447,895.6706039859123 L 548.0283987614848,987.6405160693764 L 519.6270697309673,899.5181824820689 Z" fill="#FFFFFF" stroke="#111" stroke-width="3" stroke-linejoin="round"/>
<path d="M 500,500 L 519.6270697309673,899.5181824820689 L 500.00000000000006,990.0 L 480.3729302690328,899.5181824820689 Z" fill="#FFFFFF" stroke="#111" stroke-width="3" stroke-linejoin="round"/>
<path d="M 500,500 L 480.3729302690328,899.5181824820689 L 451.9716012385153,987.6405160693764 L 441.30781021785526,895.6706039859124 Z" fill="#FFFFFF" stroke="#111" stroke-width="3" stroke-linejoin="round"/>
<path d="M 500,500 L 441.3078102178554,895.6706039859124 L 404.40574221209715,980.5847873975829 L 402.80792803869446,888.0125012778176 Z" fill="#FFFFFF" stroke="#111" stroke-width="3" stroke-linejoin="round"/>
<path d="M 500,500 L 402.8079280386945,888.0125012778176 L 357.76050814531357,968.9007645087825 L 365.244058643112,876.6176260732084 Z" fill="#FFFFFF" stroke="#111" stroke-width="3" stroke-linejoin="round"/>
<path d="M 500,500 L 365.244058643112,876.6176260732084 L 312.485118141106,952.7009709305305 L 328.9779626278872,861.5957172493775 Z" fill="#FFFFFF" stroke="#111" stroke-width="3" stroke-linejoin="round"/>
<path d="M 500,500 L 328.9779626278871,861.5957172493772 L 269.0155989552611,932.141419530694 L 294.3589023227114,843.0914440001088 Z" fill="#FFFFFF" stroke="#111" stroke-width="3" stroke-linejoin="round"/>
<path d="M 500,500 L 294.3589023227114,843.0914440001088 L 227.77058582039507,907.4201100282472 L 261.72027820302685,821.283012592258 Z" fill="#FFFFFF" stroke="#111" stroke-width="3" stroke-linejoin="round"/>
<path d="M 500,500 L 261.7202782030266,821.283012592258 L 189.14729075981376,878.7751221477412 L 231.37641806119274,796.3804501419837 Z" fill="#FFFFFF" stroke="#111" stroke-width="3" stroke-linejoin="round"/>
<path d="M 500,500 L 231.37641806119262,796.3804501419836 L 153.51767721859176,846.4823227814084 L 203.61954985801646,768.6235819388074 Z" fill="#FFFFFF" stroke="#111" stroke-width="3" stroke-linejoin="round"/>
<path d="M 500,500 L 203.61954985801628,768.6235819388073 L 121.22487785225889,810.8527092401863 L 178.71698740774207,738.2797217969734 Z" fill="#FFFFFF" stroke="#111" stroke-width="3" stroke-linejoin="round"/>
<path d="M 500,500 L 178.71698740774195,738.2797217969733 L 92.57988997175278,772.2294141796051 L 156.90855599989118,705.6410976772887 Z" fill="#FFFFFF" stroke="#111" stroke-width="3" stroke-linejoin="round"/>
<path d="M 500,500 L 156.90855599989118,705.6410976772887 L 67.8585804693061,730.9844010447389 L 138.40428275062277,671.022037372113 Z" fill="#FFFFFF" stroke="#111" stroke-width="3" stroke-linejoin="round"/>
<path d="M 500,500 L 138.40428275062266,671.0220373721128 L 47.2990290694695,687.5148818588941 L 123.38237392679173,634.7559413568881 Z" fill="#FFFFFF" stroke="#111" stroke-width="3" stroke-linejoin="round"/>
<path d="M 500,500 L 123.38237392679167,634.7559413568879 L 31.099235491217655,642.2394918546865 L 111.98749872218241,597.1920719613056 Z" fill="#FFFFFF" stroke="#111" stroke-width="3" stroke-linejoin="round"/>
<path d="M 500,500 L 111.98749872218241,597.1920719613056 L 19.415212602417114,595.594257787903 L 104.32939601408765,558.6921897821449 Z" fill="#FFFFFF" stroke="#111" stroke-width="3" stroke-linejoin="round"/>
<path d="M 500,500 L 104.32939601408759,558.6921897821447 L 12.359483930623583,548.0283987614848 L 100.48181751793106,519.6270697309674 Z" fill="#FFFFFF" stroke="#111" stroke-width="3" stroke-linejoin="round"/>
<path d="M 500,500 L 100.48181751793106,519.6270697309672 L 10.0,500.00000000000006 L 100.48181751793106,480.3729302690329 Z" fill="#FFFFFF" stroke="#111" stroke-width="3" stroke-linejoin="round"/>
<path d="M 500,500 L 100.48181751793106,480.37293026903274 L 12.359483930623526,451.9716012385153 L 104.32939601408759,441.3078102178554 Z" fill="#FFFFFF" stroke="#111" stroke-width="3" stroke-linejoin="round"/>
<path d="M 500,500 L 104.32939601408765,441.3078102178552 L 19.415212602417114,404.4057422120971 L 111.98749872218241,402.80792803869446 Z" fill="#FFFFFF" stroke="#111" stroke-width="3" stroke-linejoin="round"/>
<path d="M 500,500 L 111.98749872218241,402.80792803869446 L 31.0992354912176,357.76050814531357 L 123.38237392679162,365.2440586431121 Z" fill="#FFFFFF" stroke="#111" stroke-width="3" stroke-linejoin="round"/>
<path d="M 500,500 L 123.38237392679167,365.244058643112 L 47.29902906946944,312.48511814110606 L 138.4042827506226,328.9779626278873 Z" fill="#FFFFFF" stroke="#111" stroke-width="3" stroke-linejoin="round"/>
<path d="M 500,500 L 138.4042827506227,328.9779626278871 L 67.85858046930605,269.01559895526117 L 156.90855599989118,294.3589023227114 Z" fill="#FFFFFF" stroke="#111" stroke-width="3" stroke-linejoin="round"/>
<path d="M 500,500 L 156.90855599989118,294.3589023227114 L 92.57988997175272,227.77058582039507 L 178.71698740774195,261.72027820302685 Z" fill="#FFFFFF" stroke="#111" stroke-width="3" stroke-linejoin="round"/>
<path d="M 500,500 L 178.716987407742,261.72027820302674 L 121.22487785225883,189.1472907598138 L 203.61954985801628,231.37641806119274 Z" fill="#FFFFFF" stroke="#111" stroke-width="3" stroke-linejoin="round"/>
<path d="M 500,500 L 203.61954985801634,231.37641806119262 L 153.51767721859164,153.51767721859176 L 231.3764180611925,203.61954985801646 Z" fill="#FFFFFF" stroke="#111" stroke-width="3" stroke-linejoin="round"/>
<path d="M 500,500 L 231.3764180611925,203.61954985801646 L 189.14729075981347,121.22487785225906 L 261.7202782030264,178.71698740774218 Z" fill="#FFFFFF" stroke="#111" stroke-width="3" stroke-linejoin="round"/>
<path d="M 500,500 L 261.72027820302674,178.71698740774195 L 227.77058582039496,92.57988997175283 L 294.3589023227113,156.90855599989118 Z" fill="#FFFFFF" stroke="#111" stroke-width="3" stroke-linejoin="round"/>
<path d="M 500,500 L 294.3589023227113,156.90855599989118 L 269.01559895526105,67.8585804693061 L 328.977962627887,138.40428275062277 Z" fill="#FFFFFF" stroke="#111" stroke-width="3" stroke-linejoin="round"/>
<path d="M 500,500 L 328.977962627887,138.40428275062277 L 312.4851181411058,47.29902906946961 L 365.24405864311166,123.38237392679179 Z" fill="#FFFFFF" stroke="#111" stroke-width="3" stroke-linejoin="round"/>
<path d="M 500,500 L 365.244058643112,123.38237392679167 L 357.7605081453134,31.099235491217655 L 402.80792803869434,111.98749872218241 Z" fill="#FFFFFF" stroke="#111" stroke-width="3" stroke-linejoin="round"/>
<path d="M 500,500 L 402.80792803869434,111.98749872218241 L 404.4057422120969,19.41521260241717 L 441.3078102178551,104.32939601408765 Z" fill="#FFFFFF" stroke="#111" stroke-width="3" stroke-linejoin="round"/>
<path d="M 500,500 L 441.30781021785543,104.32939601408759 L 451.9716012385154,12.359483930623526 L 480.3729302690328,100.48181751793106 Z" fill="#FFFFFF" stroke="#111" stroke-width="3" stroke-linejoin="round"/>
<path d="M 500,500 L 480.3729302690328,100.48181751793106 L 499.9999999999999,10.0 L 519.627069730967,100.48181751793106 Z" fill="#FFFFFF" stroke="#111" stroke-width="3" stroke-linejoin="round"/>
<path d="M 500,500 L 519.627069730967,100.48181751793106 L 548.0283987614845,12.359483930623526 L 558.6921897821444,104.32939601408754 Z" fill="#FFFFFF" stroke="#111" stroke-width="3" stroke-linejoin="round"/>
<path d="M 500,500 L 558.6921897821447,104.32939601408765 L 595.5942577879028,19.415212602417114 L 597.1920719613055,111.98749872218241 Z" fill="#FFFFFF" stroke="#111" stroke-width="3" stroke-linejoin="round"/>
<path d="M 500,500 L 597.1920719613055,111.98749872218241 L 642.2394918546864,31.0992354912176 L 634.7559413568879,123.38237392679162 Z" fill="#FFFFFF" stroke="#111" stroke-width="3" stroke-linejoin="round"/>
<path d="M 500,500 L 634.7559413568881,123.38237392679179 L 687.5148818588941,47.299029069469555 L 671.0220373721129,138.40428275062266 Z" fill="#FFFFFF" stroke="#111" stroke-width="3" stroke-linejoin="round"/>
<path d="M 500,500 L 671.0220373721129,138.40428275062266 L 730.9844010447389,67.85858046930605 L 705.6410976772886,156.90855599989112 Z" fill="#FFFFFF" stroke="#111" stroke-width="3" stroke-linejoin="round"/>
<path d="M 500,500 L 705.6410976772886,156.90855599989112 L 772.2294141796049,92.57988997175272 L 738.2797217969731,178.7169874077419 Z" fill="#FFFFFF" stroke="#111" stroke-width="3" stroke-linejoin="round"/>
<path d="M 500,500 L 738.2797217969735,178.71698740774212 L 810.8527092401864,121.22487785225894 L 768.6235819388073,203.61954985801634 Z" fill="#FFFFFF" stroke="#111" stroke-width="3" stroke-linejoin="round"/>
<path d="M 500,500 L 768.6235819388073,203.61954985801634 L 846.4823227814081,153.51767721859164 L 796.3804501419836,231.3764180611925 Z" fill="#FFFFFF" stroke="#111" stroke-width="3" stroke-linejoin="round"/>
<path d="M 500,500 L 796.3804501419836,231.3764180611925 L 878.7751221477408,189.14729075981347 L 821.2830125922578,261.7202782030264 Z" fill="#FFFFFF" stroke="#111" stroke-width="3" stroke-linejoin="round"/>
<path d="M 500,500 L 821.283012592258,261.72027820302674 L 907.4201100282471,227.77058582039496 L 843.0914440001088,294.3589023227113 Z" fill="#FFFFFF" stroke="#111" stroke-width="3" stroke-linejoin="round"/>
<path d="M 500,500 L 843.0914440001088,294.3589023227113 L 932.1414195306938,269.015598955261 L 861.5957172493772,328.977962627887 Z" fill="#FFFFFF" stroke="#111" stroke-width="3" stroke-linejoin="round"/>
<path d="M 500,500 L 861.5957172493772,328.977962627887 L 952.7009709305304,312.4851181411057 L 876.6176260732082,365.24405864311166 Z" fill="#FFFFFF" stroke="#111" stroke-width="3" stroke-linejoin="round"/>
<path d="M 500,500 L 876.6176260732084,365.244058643112 L 968.9007645087823,357.76050814531334 L 888.0125012778176,402.80792803869434 Z" fill="#FFFFFF" stroke="#111" stroke-width="3" stroke-linejoin="round"/>
<path d="M 500,500 L 888.0125012778176,402.80792803869434 L 980.5847873975829,404.4057422120969 L 895.6706039859123,441.30781021785504 Z" fill="#FFFFFF" stroke="#111" stroke-width="3" stroke-linejoin="round"/>
<path d="M 500,500 L 895.6706039859124,441.3078102178554 L 987.6405160693764,451.97160123851535 L 899.5181824820689,480.37293026903274 Z" fill="#FFFFFF" stroke="#111" stroke-width="3" stroke-linejoin="round"/>
<path d="M 920.0,500.0 A 420,420 0 1,1 80.0,500.00000000000006 A 420,420 0 1,1 920.0,500.0 Z" fill="#FFFFFF" stroke="#000" stroke-width="5" />
<path d="M 500,500 L 800.0,500.0 L 908.0257379356008,540.1870275351198 L 794.2355841209692,558.5270966048384 Z" fill="#FFFFFF" stroke="#111" stroke-width="3" stroke-linejoin="round"/>
<path d="M 500,500 L 794.2355841209692,558.5270966048384 L 892.3455376502056,619.0167176743296 L 777.1638597533861,614.8050297095269 Z" fill="#FFFFFF" stroke="#111" stroke-width="3" stroke-linejoin="round"/>
<path d="M 500,500 L 777.1638597533861,614.8050297095269 L 861.5877183828256,693.272662098659 L 749.4408836907636,666.6710699058806 Z" fill="#FFFFFF" stroke="#111" stroke-width="3" stroke-linejoin="round"/>
<path d="M 500,500 L 749.4408836907636,666.6710699058806 L 816.9342858787222,760.1012465070946 L 712.1320343559643,712.1320343559643 Z" fill="#FFFFFF" stroke="#111" stroke-width="3" stroke-linejoin="round"/>
<path d="M 500,500 L 712.1320343559643,712.1320343559643 L 760.1012465070946,816.9342858787221 L 666.6710699058807,749.4408836907636 Z" fill="#FFFFFF" stroke="#111" stroke-width="3" stroke-linejoin="round"/>
<path d="M 500,500 L 666.6710699058807,749.4408836907635 L 693.2726620986591,861.5877183828255 L 614.8050297095269,777.1638597533861 Z" fill="#FFFFFF" stroke="#111" stroke-width="3" stroke-linejoin="round"/>
<path d="M 500,500 L 614.8050297095269,777.1638597533861 L 619.0167176743296,892.3455376502056 L 558.5270966048384,794.2355841209692 Z" fill="#FFFFFF" stroke="#111" stroke-width="3" stroke-linejoin="round"/>
<path d="M 500,500 L 558.5270966048386,794.2355841209692 L 540.1870275351199,908.0257379356008 L 500.0,800.0 Z" fill="#FFFFFF" stroke="#111" stroke-width="3" stroke-linejoin="round"/>
<path d="M 500,500 L 500.0,800.0 L 459.81297246488015,908.0257379356008 L 441.4729033951615,794.2355841209692 Z" fill="#FFFFFF" stroke="#111" stroke-width="3" stroke-linejoin="round"/>
<path d="M 500,500 L 441.4729033951616,794.2355841209692 L 380.98328232567053,892.3455376502056 L 385.19497029047307,777.1638597533861 Z" fill="#FFFFFF" stroke="#111" stroke-width="3" stroke-linejoin="round"/>
<path d="M 500,500 L 385.19497029047307,777.1638597533861 L 306.72733790134095,861.5877183828256 L 333.3289300941193,749.4408836907635 Z" fill="#FFFFFF" stroke="#111" stroke-width="3" stroke-linejoin="round"/>
<path d="M 500,500 L 333.3289300941194,749.4408836907636 L 239.89875349290537,816.9342858787222 L 287.86796564403573,712.1320343559643 Z" fill="#FFFFFF" stroke="#111" stroke-width="3" stroke-linejoin="round"/>
<path d="M 500,500 L 287.86796564403573,712.1320343559643 L 183.06571412127784,760.1012465070946 L 250.5591163092364,666.6710699058806 Z" fill="#FFFFFF" stroke="#111" stroke-width="3" stroke-linejoin="round"/>
<path d="M 500,500 L 250.5591163092364,666.6710699058806 L 138.41228161717436,693.2726620986589 L 222.83614024661392,614.8050297095268 Z" fill="#FFFFFF" stroke="#111" stroke-width="3" stroke-linejoin="round"/>
<path d="M 500,500 L 222.83614024661398,614.8050297095269 L 107.65446234979436,619.0167176743296 L 205.76441587903088,558.5270966048384 Z" fill="#FFFFFF" stroke="#111" stroke-width="3" stroke-linejoin="round"/>
<path d="M 500,500 L 205.76441587903088,558.5270966048386 L 91.97426206439928,540.1870275351199 L 200.0,500.00000000000006 Z" fill="#FFFFFF" stroke="#111" stroke-width="3" stroke-linejoin="round"/>
<path d="M 500,500 L 200.0,500.00000000000006 L 91.97426206439928,459.81297246488015 L 205.76441587903088,441.4729033951615 Z" fill="#FFFFFF" stroke="#111" stroke-width="3" stroke-linejoin="round"/>
<path d="M 500,500 L 205.76441587903088,441.4729033951615 L 107.65446234979436,380.98328232567036 L 222.83614024661404,385.19497029047295 Z" fill="#FFFFFF" stroke="#111" stroke-width="3" stroke-linejoin="round"/>
<path d="M 500,500 L 222.83614024661392,385.19497029047307 L 138.41228161717441,306.727337901341 L 250.55911630923643,333.3289300941193 Z" fill="#FFFFFF" stroke="#111" stroke-width="3" stroke-linejoin="round"/>
<path d="M 500,500 L 250.55911630923637,333.3289300941194 L 183.06571412127778,239.89875349290543 L 287.86796564403573,287.86796564403573 Z" fill="#FFFFFF" stroke="#111" stroke-width="3" stroke-linejoin="round"/>
<path d="M 500,500 L 287.8679656440356,287.86796564403585 L 239.89875349290514,183.06571412127795 L 333.3289300941191,250.55911630923657 Z" fill="#FFFFFF" stroke="#111" stroke-width="3" stroke-linejoin="round"/>
<path d="M 500,500 L 333.32893009411936,250.55911630923643 L 306.7273379013409,138.41228161717447 L 385.1949702904729,222.83614024661404 Z" fill="#FFFFFF" stroke="#111" stroke-width="3" stroke-linejoin="round"/>
<path d="M 500,500 L 385.1949702904729,222.83614024661404 L 380.9832823256701,107.65446234979447 L 441.47290339516115,205.76441587903093 Z" fill="#FFFFFF" stroke="#111" stroke-width="3" stroke-linejoin="round"/>
<path d="M 500,500 L 441.4729033951614,205.76441587903088 L 459.81297246487986,91.97426206439928 L 499.99999999999966,200.0 Z" fill="#FFFFFF" stroke="#111" stroke-width="3" stroke-linejoin="round"/>
<path d="M 500,500 L 499.99999999999994,200.0 L 540.1870275351197,91.97426206439928 L 558.5270966048382,205.76441587903082 Z" fill="#FFFFFF" stroke="#111" stroke-width="3" stroke-linejoin="round"/>
<path d="M 500,500 L 558.5270966048384,205.76441587903088 L 619.0167176743295,107.65446234979436 L 614.8050297095267,222.83614024661392 Z" fill="#FFFFFF" stroke="#111" stroke-width="3" stroke-linejoin="round"/>
<path d="M 500,500 L 614.805029709527,222.83614024661404 L 693.272662098659,138.41228161717441 L 666.6710699058806,250.55911630923637 Z" fill="#FFFFFF" stroke="#111" stroke-width="3" stroke-linejoin="round"/>
<path d="M 500,500 L 666.6710699058806,250.55911630923637 L 760.1012465070944,183.06571412127767 L 712.132034355964,287.8679656440355 Z" fill="#FFFFFF" stroke="#111" stroke-width="3" stroke-linejoin="round"/>
<path d="M 500,500 L 712.1320343559642,287.86796564403573 L 816.934285878722,239.89875349290514 L 749.4408836907634,333.3289300941191 Z" fill="#FFFFFF" stroke="#111" stroke-width="3" stroke-linejoin="round"/>
<path d="M 500,500 L 749.4408836907636,333.32893009411936 L 861.5877183828254,306.7273379013409 L 777.163859753386,385.1949702904729 Z" fill="#FFFFFF" stroke="#111" stroke-width="3" stroke-linejoin="round"/>
<path d="M 500,500 L 777.163859753386,385.1949702904729 L 892.3455376502055,380.98328232567 L 794.2355841209691,441.4729033951611 Z" fill="#FFFFFF" stroke="#111" stroke-width="3" stroke-linejoin="round"/>
<path d="M 500,500 L 794.2355841209692,441.4729033951614 L 908.0257379356008,459.8129724648798 L 800.0,499.99999999999966 Z" fill="#FFFFFF" stroke="#111" stroke-width="3" stroke-linejoin="round"/>
<path d="M 820.0,500.0 A 320,320 0 1,1 180.0,500.00000000000006 A 320,320 0 1,1 820.0,500.0 Z" fill="#FFFFFF" stroke="#000" stroke-width="5" />
<path d="M 500,500 L 696.157056080646,460.98193559677435 L 810.0,500.0 L 696.157056080646,539.0180644032257 Z" fill="#FFFFFF" stroke="#111" stroke-width="3" stroke-linejoin="round"/>
<path d="M 500,500 L 696.157056080646,539.0180644032257 L 786.4026550784988,618.6318640331779 L 666.2939224605091,611.1140466039204 Z" fill="#FFFFFF" stroke="#111" stroke-width="3" stroke-linejoin="round"/>
<path d="M 500,500 L 666.2939224605091,611.1140466039204 L 719.2031021678297,719.2031021678297 L 611.1140466039204,666.2939224605091 Z" fill="#FFFFFF" stroke="#111" stroke-width="3" stroke-linejoin="round"/>
<path d="M 500,500 L 611.1140466039204,666.2939224605091 L 618.6318640331779,786.4026550784988 L 539.0180644032257,696.157056080646 Z" fill="#FFFFFF" stroke="#111" stroke-width="3" stroke-linejoin="round"/>
<path d="M 500,500 L 539.0180644032257,696.157056080646 L 500.0,810.0 L 460.98193559677435,696.157056080646 Z" fill="#FFFFFF" stroke="#111" stroke-width="3" stroke-linejoin="round"/>
<path d="M 500,500 L 460.98193559677435,696.157056080646 L 381.3681359668222,786.4026550784988 L 388.8859533960796,666.2939224605091 Z" fill="#FFFFFF" stroke="#111" stroke-width="3" stroke-linejoin="round"/>
<path d="M 500,500 L 388.8859533960796,666.2939224605091 L 280.7968978321703,719.2031021678297 L 333.70607753949093,611.1140466039204 Z" fill="#FFFFFF" stroke="#111" stroke-width="3" stroke-linejoin="round"/>
<path d="M 500,500 L 333.70607753949093,611.1140466039204 L 213.59734492150113,618.6318640331779 L 303.8429439193539,539.0180644032257 Z" fill="#FFFFFF" stroke="#111" stroke-width="3" stroke-linejoin="round"/>
<path d="M 500,500 L 303.8429439193539,539.0180644032257 L 190.0,500.00000000000006 L 303.8429439193539,460.98193559677435 Z" fill="#FFFFFF" stroke="#111" stroke-width="3" stroke-linejoin="round"/>
<path d="M 500,500 L 303.8429439193539,460.98193559677435 L 213.59734492150108,381.3681359668222 L 333.70607753949093,388.8859533960796 Z" fill="#FFFFFF" stroke="#111" stroke-width="3" stroke-linejoin="round"/>
<path d="M 500,500 L 333.70607753949093,388.8859533960796 L 280.7968978321702,280.7968978321703 L 388.88595339607957,333.70607753949093 Z" fill="#FFFFFF" stroke="#111" stroke-width="3" stroke-linejoin="round"/>
<path d="M 500,500 L 388.8859533960794,333.70607753949105 L 381.368135966822,213.5973449215012 L 460.9819355967743,303.84294391935396 Z" fill="#FFFFFF" stroke="#111" stroke-width="3" stroke-linejoin="round"/>
<path d="M 500,500 L 460.9819355967743,303.84294391935396 L 499.99999999999994,190.0 L 539.0180644032257,303.8429439193539 Z" fill="#FFFFFF" stroke="#111" stroke-width="3" stroke-linejoin="round"/>
<path d="M 500,500 L 539.0180644032257,303.8429439193539 L 618.6318640331779,213.59734492150113 L 611.1140466039205,333.706077539491 Z" fill="#FFFFFF" stroke="#111" stroke-width="3" stroke-linejoin="round"/>
<path d="M 500,500 L 611.1140466039203,333.70607753949093 L 719.2031021678297,280.7968978321702 L 666.2939224605091,388.88595339607957 Z" fill="#FFFFFF" stroke="#111" stroke-width="3" stroke-linejoin="round"/>
<path d="M 500,500 L 666.293922460509,388.8859533960794 L 786.4026550784988,381.36813596682197 L 696.157056080646,460.98193559677424 Z" fill="#FFFFFF" stroke="#111" stroke-width="3" stroke-linejoin="round"/>
<path d="M 710.0,500.0 A 210,210 0 1,1 290.0,500.0 A 210,210 0 1,1 710.0,500.0 Z" fill="#FFFFFF" stroke="#000" stroke-width="4" />
<path d="M 500,500 L 599.144486137381,486.94738077799485 L 698.288972274762,526.1052384440103 L 592.3879532511287,538.2683432365089 Z" fill="#FFFFFF" stroke="#111" stroke-width="3" stroke-linejoin="round"/>
<path d="M 500,500 L 592.3879532511287,538.2683432365089 L 658.6706680582471,621.7522858017442 L 560.8761429008721,579.3353340291235 Z" fill="#FFFFFF" stroke="#111" stroke-width="3" stroke-linejoin="round"/>
<path d="M 500,500 L 560.8761429008721,579.3353340291235 L 576.536686473018,684.7759065022574 L 513.0526192220052,599.144486137381 Z" fill="#FFFFFF" stroke="#111" stroke-width="3" stroke-linejoin="round"/>
<path d="M 500,500 L 513.0526192220052,599.144486137381 L 473.8947615559897,698.288972274762 L 461.731656763491,592.3879532511287 Z" fill="#FFFFFF" stroke="#111" stroke-width="3" stroke-linejoin="round"/>
<path d="M 500,500 L 461.73165676349106,592.3879532511287 L 378.24771419825595,658.6706680582471 L 420.6646659708765,560.8761429008721 Z" fill="#FFFFFF" stroke="#111" stroke-width="3" stroke-linejoin="round"/>
<path d="M 500,500 L 420.6646659708765,560.8761429008721 L 315.2240934977426,576.536686473018 L 400.855513862619,513.0526192220052 Z" fill="#FFFFFF" stroke="#111" stroke-width="3" stroke-linejoin="round"/>
<path d="M 500,500 L 400.855513862619,513.0526192220052 L 301.7110277252379,473.89476155598976 L 407.6120467488713,461.73165676349106 Z" fill="#FFFFFF" stroke="#111" stroke-width="3" stroke-linejoin="round"/>
<path d="M 500,500 L 407.6120467488713,461.73165676349106 L 341.3293319417529,378.24771419825595 L 439.1238570991279,420.6646659708765 Z" fill="#FFFFFF" stroke="#111" stroke-width="3" stroke-linejoin="round"/>
<path d="M 500,500 L 439.1238570991279,420.6646659708765 L 423.46331352698195,315.22409349774273 L 486.94738077799474,400.855513862619 Z" fill="#FFFFFF" stroke="#111" stroke-width="3" stroke-linejoin="round"/>
<path d="M 500,500 L 486.94738077799485,400.855513862619 L 526.1052384440103,301.7110277252379 L 538.2683432365089,407.6120467488713 Z" fill="#FFFFFF" stroke="#111" stroke-width="3" stroke-linejoin="round"/>
<path d="M 500,500 L 538.268343236509,407.6120467488713 L 621.7522858017442,341.32933194175297 L 579.3353340291235,439.1238570991279 Z" fill="#FFFFFF" stroke="#111" stroke-width="3" stroke-linejoin="round"/>
<path d="M 500,500 L 579.3353340291235,439.1238570991279 L 684.7759065022573,423.4633135269819 L 599.144486137381,486.94738077799474 Z" fill="#FFFFFF" stroke="#111" stroke-width="3" stroke-linejoin="round"/>
<path d="M 610.0,500.0 A 110,110 0 1,1 390.0,500.0 A 110,110 0 1,1 610.0,500.0 Z" fill="#FFFFFF" stroke="#000" stroke-width="4" />
<path d="M 500,500 L 527.7163859753387,488.51949702904733 L 600.0,500.0 L 527.7163859753387,511.48050297095267 Z" fill="#FFFFFF" stroke="#111" stroke-width="3" stroke-linejoin="round"/>
<path d="M 500,500 L 527.7163859753387,511.48050297095267 L 570.7106781186548,570.7106781186548 L 511.48050297095267,527.7163859753387 Z" fill="#FFFFFF" stroke="#111" stroke-width="3" stroke-linejoin="round"/>
<path d="M 500,500 L 511.48050297095267,527.7163859753387 L 500.0,600.0 L 488.51949702904733,527.7163859753387 Z" fill="#FFFFFF" stroke="#111" stroke-width="3" stroke-linejoin="round"/>
<path d="M 500,500 L 488.51949702904733,527.7163859753387 L 429.28932188134524,570.7106781186548 L 472.2836140246614,511.48050297095267 Z" fill="#FFFFFF" stroke="#111" stroke-width="3" stroke-linejoin="round"/>
<path d="M 500,500 L 472.2836140246614,511.48050297095267 L 400.0,500.0 L 472.2836140246614,488.51949702904733 Z" fill="#FFFFFF" stroke="#111" stroke-width="3" stroke-linejoin="round"/>
<path d="M 500,500 L 472.2836140246614,488.51949702904733 L 429.28932188134524,429.28932188134524 L 488.5194970290473,472.2836140246614 Z" fill="#FFFFFF" stroke="#111" stroke-width="3" stroke-linejoin="round"/>
<path d="M 500,500 L 488.5194970290473,472.2836140246614 L 500.0,400.0 L 511.4805029709527,472.2836140246614 Z" fill="#FFFFFF" stroke="#111" stroke-width="3" stroke-linejoin="round"/>
<path d="M 500,500 L 511.4805029709527,472.2836140246614 L 570.7106781186548,429.28932188134524 L 527.7163859753387,488.5194970290473 Z" fill="#FFFFFF" stroke="#111" stroke-width="3" stroke-linejoin="round"/>
<path d="M 540.0,500.0 A 40,40 0 1,1 460.0,500.0 A 40,40 0 1,1 540.0,500.0 Z" fill="#FFFFFF" stroke="#000" stroke-width="3" />
</svg>